<svg id="圖層_1" data-name="圖層 1" xmlns="http://www.w3.org/2000/svg" viewBox="0 0 24.03 32"><defs><style>.cls-1{fill:#fff;}</style></defs><path class="cls-1" d="M12.68,3.4a7.15,7.15,0,0,0,1.54-2.08c.41-.71,2.31-.87,3.25-.2s0,1.09-.23,1.56a6.28,6.28,0,0,1-1,1.7c-.7.8-1.1,1.51-.13,2.4.45.41.39.78-.28,1-1.23.43-2.3,1.32-3.65-.09-.82-.86-2-.19-2.78.6a5.61,5.61,0,0,0-1.45,4.88c.15,1.1.35,2.15-1.18,2.37s-2.21-.4-2.49-2C3.72,10.5,5,5.76,8.63,4.49c1.25-.45.85-1.87,1-2.9.09-.5-.31-1.28.21-1.44A6.8,6.8,0,0,1,12.26.06c.43,0,.4.49.41.81C12.7,1.67,12.68,2.47,12.68,3.4Z"/><path class="cls-1" d="M3,10.41c.21,1.36-.51,2.33-1,3.41-.28.62-1.59,2,.66,2,.65,0,.64.72.33,1.25-1.41,2.4-.69,4.59,1,6.42A79.83,79.83,0,0,0,10,29.35c1.68,1.51,2.62,1.41,4.39,0,2.31-1.81,4.59-6.49,3-9.6-.39-.76,0-1.25.45-1.78a3.69,3.69,0,0,0,.66-3.63c-.09-.3-.95-.78,0-1,.64-.17,1.19-.12,1.46.69a4.61,4.61,0,0,1-.51,4.24,2.33,2.33,0,0,0-.29,2.22c1.07,4-2.06,9.91-5.88,11.31a3.35,3.35,0,0,1-3.26-.46,43.39,43.39,0,0,1-8.24-8.06,5.22,5.22,0,0,1-1-2.64,29.89,29.89,0,0,0-.71-4.16C-.48,14.19.83,11.73,3,10.41Z"/><path class="cls-1" d="M13.66,25.21c-.34.65-.65,1.27-1,1.88-.21.39-.34,1.09-.95.75s-.1-.85.07-1.26c.44-1,.92-2,1.46-3.14-1.2.18-1.94.91-2.87,1.17-.4.11-.89.39-1.08-.21s.32-.62.67-.75a10.56,10.56,0,0,0,2.86-1.6c1.45-1.17,1.69-2.58.49-4s-.25-3-.41-4.52c-.09-.84,1.1-1.06,1.79-1.42a11,11,0,0,1,8.2-.62c.39.1,1,.14.83.74s-.71.35-1.09.24a10.59,10.59,0,0,0-7.77.65c-1.54.74-.79,2-1.09,3.09-.24.86.45,1,1,1.33a8,8,0,0,1,1.06.73c.36.3.44.8-.11.81-.74,0-.63.4-.67.89-.18,2-.55,3.93,0,5.92.11.44.21,1.26-.48,1.3-.86.05-.43-.74-.49-1.19C14,25.76,14,25.46,13.66,25.21Z"/><path class="cls-1" d="M23.34,10.23A12.57,12.57,0,0,0,15.85,10c-.5.16-1,.32-1.47.52-2,.85-2,.86-3.14-1-.13-.22-.5-.42-.2-.72a.57.57,0,0,1,.88.08c.82,1.62,1.84.73,2.9.36a13.42,13.42,0,0,1,8.54,0c.37.11.79.24.63.75A.52.52,0,0,1,23.34,10.23Z"/><path class="cls-1" d="M9.44,10.52a8.4,8.4,0,0,1,1,5.35c-.11.8-2.51,1.58-3.11,1.09a.46.46,0,0,1-.15-.51c.11-.31.39-.37.67-.45,1.76-.5,1.89-.71,1.51-2.56A4.14,4.14,0,0,1,9.44,10.52Z"/><path class="cls-1" d="M4.45,5.33c-.43-.49-2,.21-1.78-.8.2-1.2,1.39-.12,2.13-.17.22,0,1-.1.85.56C5.54,5.35,5.07,5.5,4.45,5.33Z"/><path class="cls-1" d="M2.07,6.36c.61.27,1.39.1,1.91.66a.51.51,0,0,1-.1.49c-.69.53-1.32-.13-2-.15-.36,0-.8-.15-.67-.68S1.71,6.34,2.07,6.36Z"/></svg>