<svg id="圖層_1" data-name="圖層 1" xmlns="http://www.w3.org/2000/svg" viewBox="0 0 35.14 32"><defs><style>.cls-1{fill:#fff;}</style></defs><path class="cls-1" d="M4.38,30c-1.3-.4-2.58-.73-3.81-1.2-.28-.1-.39-.67-.57-1a3.94,3.94,0,0,1,1.16-.15,28,28,0,0,0,3.34.56,1.74,1.74,0,0,0,1.77-1.71c.08-.63.24-1.25.29-1.88a7.41,7.41,0,0,1,4.66-6.5c.31-.14.6-.3.94-.47a3.84,3.84,0,0,1-.19-.89c0-1.35-.58-2-2-2.13-1.7-.19-2.56.06-3.36,1.37a10.74,10.74,0,0,1-1.41,2.29,11,11,0,0,1-2.7,1.69c-.21.1-.65-.24-1-.38.21-.3.35-.74.63-.87,1.92-.84,2.14-1,2.76-2.32-.39-.19-.79-.36-1.18-.57a4.3,4.3,0,0,1-2.18-4.85c.07-.26.4-.45.62-.68.23.25.59.45.67.73.22.75.23,1.57.48,2.3a1.48,1.48,0,0,0,2.12,1.06,17.81,17.81,0,0,0,2-.8A7.38,7.38,0,0,1,12,12.69c.65.12.76-.16.64-.76-.28-1.39-.5-2.79-.72-4.18-.06-.37,0-.75-.08-1.12C11.64,4.75,11,4.42,9.34,5.37c-.16.09-.31.27-.47.28a8.1,8.1,0,0,1-1.1-.05c.13-.37.16-.88.43-1.08a9.84,9.84,0,0,1,1.73-.9c.07-1,.09-1.94.25-2.88,0-.29.5-.5.78-.74.17.32.46.62.49,1a15.87,15.87,0,0,0-.07,1.67,3.36,3.36,0,0,0,.82,1.6A5.51,5.51,0,0,1,13.77,7.5c.14,1,.39,2.07.59,3.06,1.06-.24,1.86-.4,2.65-.6a1,1,0,0,0,.59-.41,8.21,8.21,0,0,0,.72-5.36,3.33,3.33,0,0,0-1.86-2.25c-.33-.16-.46-.69-.69-1,.4-.07.92-.33,1.17-.17,1,.64,1.95,1.41,2.89,2.12,1-.34,2.27-.82,3.55-1.12.37-.09,1.16.25,1.23.53.19.73-.5.73-1,.79-2.58.29-3,.8-3.12,3.41-.06,1.34-.3,2.66-.48,4.17.63.84,1.44,1,2.64.26a3.88,3.88,0,0,1,4.71.4l.81.63A3.3,3.3,0,0,0,29.3,9c0-.39.33-.77.51-1.15.27.37.71.71.77,1.11a4.45,4.45,0,0,1-1.22,3.81,4,4,0,0,0,4.43,1,3.5,3.5,0,0,1,1.35.08c-.26.38-.44.93-.8,1.13a4.26,4.26,0,0,1-4.77-.28c-.83-.57-1.6-1.24-2.43-1.81-1.19-.81-3.93-.56-4.35.69a6.5,6.5,0,0,0,0,4.31c.56,1.25,2.19,1.63,3.75,1.46a18.51,18.51,0,0,1,3.57,0c.53,0,1.35.22,1.11,1.07s-.9.37-1.41.25a3.05,3.05,0,0,0-.45-.07A3.54,3.54,0,0,1,28,24.14c-.26.21-.76.13-1.16.19A4.52,4.52,0,0,1,27,23.19c.28-.55.82-1,1-1.58s0-1.41-.93-1c-1.79.79-3.39.27-4.95-.53-.77-.39-1.42-.62-2.09.09a.53.53,0,0,0-.1.06c-.52.52-1.77.12-1.7,1.41.07,1.54.22,3,1.69,3.93a16.55,16.55,0,0,0,2.35,1.06,5.28,5.28,0,0,1,3.3,3.72c.1.41,0,1.19-.3,1.31-.67.3-.81-.35-1-.87A5.07,5.07,0,0,0,21,27.45c0,2.38-1.29,3.73-3.29,4.51-.35.13-.84-.09-1.26-.15.23-.35.38-.87.7-1,2.87-1.39,3-1.7,1-4.2a8.53,8.53,0,0,1-2.15-5.2c0-.28-.34-.56-.56-.81s-.3-.08-.4-.17c-1.49-1.33-2.79-.49-3.78.57a18.27,18.27,0,0,0-2.6,3.74c-.74,1.34-1.1,2.89-1.88,4.2a14.44,14.44,0,0,1-2.5,2.81c-.21.19-.78,0-1.18,0a3.85,3.85,0,0,1,.45-1.08A3.84,3.84,0,0,1,4.38,30ZM19.07,15.4a1.79,1.79,0,0,0-1.83-1.72,1.76,1.76,0,1,0,.07,3.52A1.79,1.79,0,0,0,19.07,15.4Z"/></svg>