<svg id="圖層_1" data-name="圖層 1" xmlns="http://www.w3.org/2000/svg" viewBox="0 0 32 31.96"><defs><style>.cls-1{fill:#fff;}</style></defs><path class="cls-1" d="M20.45,10.16l3.66-1.59a7.25,7.25,0,0,0,3.2-2.31c.2-.28.48-.57.83-.31s.2.64,0,1A9.37,9.37,0,0,1,25,9.41c.93.47,1.75.86,2.56,1.29.34.19.7.49.45.91s-.66.16-1,0a7.4,7.4,0,0,0-4.83-1.12c.92.75,1.86,1.06,2.43,1.83.25.34.62.74.13,1.1s-.66-.14-.92-.4a5.57,5.57,0,0,0-.85-.76c-1.82-1.21-3.38-.57-3.53,1.61-.19,2.7-.11,5.42-.16,8.14a.9.9,0,0,0,.78,1,3,3,0,0,1,2.44,2.49,4,4,0,0,1-1.81,3.68,6.07,6.07,0,0,1-2.05,1c-.71.19-1.57.24-1.41,1.37a.42.42,0,0,1-.45.45c-.36,0-.47-.26-.5-.57-.1-1,.09-1.82,1.26-2.05a5.61,5.61,0,0,0,2.83-1.26,2.74,2.74,0,0,0,1.05-2.66,2.09,2.09,0,0,0-1.91-1.5c-1-.19-1.28-.67-1.25-1.66.06-2.05,0-4.1,0-6.14a10.42,10.42,0,0,1,.8-4.86,3.91,3.91,0,0,0-1.24,3.28c-.06,2.57-.07,5.15,0,7.72,0,1-.33,1.36-1.32,1.29-2.32-.18-2.16.43-2.17-2.14,0-2.24,0-4.48,0-6.72C14.2,11.53,13,9.93,10,8.84A6.07,6.07,0,0,1,6.53,6.2c-.2-.36-.56-.81-.12-1.15s.74.14,1,.49c.8,1.31,2.2,1.76,3.48,2.37.63.3,1.1,0,1.46-.55.23-.33.49-.66.91-.29a.59.59,0,0,1-.05.9c-.66.64-.41,1,.21,1.52,1.55,1.36,1.88,3.26,1.93,5.2,0,2.19,0,4.39,0,6.58,0,.54-.15,1.25.76,1.2s.63-.7.64-1.18c0-2.24,0-4.48,0-6.72A6.35,6.35,0,0,1,19,9.24c.43-.35.51-.58.08-1-.28-.28-.65-.71-.21-1.12s.71.1,1,.39a1.16,1.16,0,0,0,1.53.32c1.29-.61,2.66-1.08,3.43-2.43.16-.28.38-.64.77-.39s.25.68.07,1a5.47,5.47,0,0,1-2.45,2.11c-1,.55-2.25.8-3.09,1.72a.52.52,0,0,0-.19.2c-.29.16-.82.31-.47.72s.51-.18.71-.4Z"/><path class="cls-1" d="M0,8.85C.11,5.6,1.2,2.86,3.92,1A5.42,5.42,0,0,1,10.1,1a4.53,4.53,0,0,1,1.7,5.07c-.11.36,0,1.11-.79.83-.54-.18-.91-.39-.73-1.11a3,3,0,0,0-1.36-3.7,4,4,0,0,0-4.65.54C1.68,4.94,1.18,7.92,1.81,11.13A8.73,8.73,0,0,0,5,16.72a3.19,3.19,0,0,0,4.49-.39,2.28,2.28,0,0,0,.58-2.62c-.15-.35-.57-.77.13-1,.54-.18,1-.19,1.3.46a3.55,3.55,0,0,1,0,2.77,4.84,4.84,0,0,1-7.92,1.63C1.07,15.22.14,12.17,0,8.85Z"/><path class="cls-1" d="M30.43,9.07A8.05,8.05,0,0,0,28.15,3,4.22,4.22,0,0,0,25,1.61c-2.35.08-3.71,1.64-3.27,4,.14.76.05,1.25-.73,1.36s-.68-.64-.77-1.07a4.37,4.37,0,0,1,1.51-4.63A5,5,0,0,1,27.06.46c3.13,1.37,4.52,4.05,4.86,7.23a11.74,11.74,0,0,1-3.18,9.6,4.89,4.89,0,0,1-7.16.28,4.2,4.2,0,0,1-1.15-4.19c.24-.63.6-1,1.31-.71s.33.68.18,1.1a2.33,2.33,0,0,0,.77,2.7,3.12,3.12,0,0,0,3.41.77,5.58,5.58,0,0,0,2.61-2.35A11.08,11.08,0,0,0,30.43,9.07Z"/><path class="cls-1" d="M9.64,10.49a7,7,0,0,0-4.47,1c-.35.2-.78.66-1.12.19s.21-.86.59-1.08c.69-.4,1.43-.71,2.26-1.11-.85-.79-2-1.2-2.7-2.16-.26-.38-1-.8-.39-1.31s.88.26,1.17.6A8.8,8.8,0,0,0,8.71,8.88c4.2,1.54,5.08,2.83,5,7.33,0,2.05,0,4.1,0,6.15,0,.84-.17,1.31-1.08,1.51s-2,.52-2.11,1.79a2.93,2.93,0,0,0,1.73,2.89,9.54,9.54,0,0,0,2.14.75c1.14.27,1.4,1,1.28,2,0,.3-.07.6-.43.63a.48.48,0,0,1-.53-.54c.09-1-.71-1.09-1.37-1.29A5.25,5.25,0,0,1,10,27.56c-1-2-.43-3.63,1.6-4.4a1.53,1.53,0,0,0,1.18-1.77c-.07-2.28,0-4.57-.07-6.86,0-1.1-.14-2.3-1.37-2.76s-2.08.32-2.92,1.06c-.32.29-.59,1-1.11.5s0-1,.43-1.31C8.22,11.56,8.79,11.15,9.64,10.49Z"/><path class="cls-1" d="M20.39,26.05a1.82,1.82,0,0,1-.95,1.54,6.72,6.72,0,0,1-6.9,0c-.44-.32-1-.72-.86-1.23s.81-.26,1.22-.27C15.38,26,17.85,26.05,20.39,26.05Z"/><path class="cls-1" d="M20.11,10.39c-.2.22-.48.67-.71.4s.18-.56.47-.72Z"/><path class="cls-1" d="M20.45,10.16l-.34.23-.24-.32a.52.52,0,0,1,.19-.2Z"/></svg>