<svg id="圖層_1" data-name="圖層 1" xmlns="http://www.w3.org/2000/svg" viewBox="0 0 32 29.69"><defs><style>.cls-1{fill:#fff;}</style></defs><path class="cls-1" d="M29.3,4.43c-2.8,0-5.6,0-8.4,0-1.53,0-1.53,0-2-1.47A4,4,0,0,0,14.18.09c-.92.18-1.85.26-2.76.45C9.83.88,8.11,1,6.87,2.17A23.58,23.58,0,0,0,3.68,5.82C3,6.81,2.32,7.68.93,7.36a.52.52,0,0,0-.41,0C.31,7.58,0,7.84,0,8a1,1,0,0,0,.58.63c.43.11.9,0,1.35.06A2.12,2.12,0,0,0,4.28,7.46,11.55,11.55,0,0,1,8.12,3.08a14.6,14.6,0,0,1,7.62-1.52c.55,0,1.16.71,1.6,1.22A5.9,5.9,0,0,1,18,4.42c-1.13,0-2.11,0-3.09,0a7.85,7.85,0,0,1-1.32-.49,5.82,5.82,0,0,0-1-.14,2.66,2.66,0,0,0,0,1.05,1.7,1.7,0,0,0,1.77,1c4.93,0,9.85,0,14.78,0A1.42,1.42,0,0,1,30.64,7c0,.68-.63,1.17-1.55,1.18H18.73c-.52,0-.91.2-.93.75s.38.72.91.71c1.15,0,2.32,0,3.48,0,.95,0,1.4.4,1.41,1.19s-.43,1.25-1.44,1.26H18.68c-.47,0-.87.12-.89.67s.39.68.86.68c.65,0,1.3,0,2,0A1.37,1.37,0,0,1,22,14.69c0,.67-.46,1.14-1.33,1.21s-1.47,0-2.2.09a.93.93,0,0,0-.64.45.71.71,0,0,0,.15.68,1.71,1.71,0,0,0,.86.2c1,.1,1.65,1.08,1.08,1.84a1.92,1.92,0,0,1-1.36.63c-2.26.07-4.53,0-6.79.05a8.2,8.2,0,0,1-4.62-1.36,3.8,3.8,0,0,0-1.56-.72c-1.58-.1-3.17,0-4.76,0-.47,0-.83.17-.8.73s.4.62.83.63c1.22,0,2.44-.06,3.65,0a4,4,0,0,1,1.71.53,9.39,9.39,0,0,0,4.59,1.55q4,.06,8.06,0a2.42,2.42,0,0,0,2.61-2.89,1.2,1.2,0,0,1,.73-1.38,2.43,2.43,0,0,0,1.07-2.83.63.63,0,0,1,.37-.87,2.13,2.13,0,0,0,1-.95,19.56,19.56,0,0,0,.56-2.59c1.35,0,2.84,0,4.34,0a2.53,2.53,0,0,0,2.31-1.75A2.58,2.58,0,0,0,29.3,4.43Z"/><path class="cls-1" d="M28.87,12.69c-.6-.93-1.11-.9-1.68,0s-1.33,2.08-2,3.15a3.43,3.43,0,0,0-.15,3.75,3.91,3.91,0,0,0,3.2,1.81,13.83,13.83,0,0,0,1.61-.59,3.34,3.34,0,0,0,1.42-4.07C30.56,15.38,29.72,14,28.87,12.69Zm-.22,7.08a1.8,1.8,0,0,1-2-.51,1.68,1.68,0,0,1-.4-2.09c.54-1,1.13-1.93,1.83-3.12.71,1.43,1.78,2.45,1.8,4A1.72,1.72,0,0,1,28.65,19.77Z"/><path class="cls-1" d="M24.79,24.44c0-.16-.41-.46-.63-.46s-.61.34-.59.5c.11,1.17-.19,1.81-1.54,1.63-.2,0-.63.46-.68.76-.09.46.28.68.76.64.2,0,.4,0,.59,0,.64-.08.83.22.83.83s-.29,1.35.64,1.36.7-.8.7-1.35.25-.93.92-.84a1.58,1.58,0,0,0,.75,0,4.16,4.16,0,0,0,.81-.65c-.4-.32-.69-.74-.91-.71C25.07,26.31,24.75,25.62,24.79,24.44Z"/><path class="cls-1" d="M9.73,26.09a8.86,8.86,0,0,0-1.86,0,11.44,11.44,0,0,0-2,0,1.21,1.21,0,0,0-.8.76c-.11.52.33.68.83.66s1.3,0,2,0H9.77c.51,0,1.11,0,1-.69C10.66,26.5,10.11,26.16,9.73,26.09Z"/></svg>