<svg id="圖層_1" data-name="圖層 1" xmlns="http://www.w3.org/2000/svg" viewBox="0 0 32 32"><defs><style>.cls-1{fill:#fff;}</style></defs><path class="cls-1" d="M12.14,26.31H9.4V22.44L11.19,22c-.48-.52-.91-1-1.35-1.43-.06-.07-.2-.07-.3-.07a13.64,13.64,0,0,1-2.12,0,6.55,6.55,0,1,1,6.92-3.66.33.33,0,0,0,0,.27,4.18,4.18,0,0,0,1.39,1.08.74.74,0,0,0,.09-.12,8.14,8.14,0,0,0,1-5.36A8.51,8.51,0,0,0,9,5.64a8.42,8.42,0,0,0-8.54,5.8c-.2.62-.29,1.29-.43,1.94v1.37c.08.43.14.86.24,1.28a8.42,8.42,0,0,0,7.08,6.35l.16,0v3.9c-.91,0-1.81,0-2.72,0a1,1,0,0,0-.87.45.93.93,0,0,0,.81,1.42c.92,0,1.83,0,2.8,0v.3c0,.75,0,1.5,0,2.25A1.19,1.19,0,0,0,8.19,32h.5a1.17,1.17,0,0,0,.69-1.26c0-.84,0-1.68,0-2.55h2.78a.94.94,0,1,0,0-1.88Z"/><path class="cls-1" d="M32,1.06A1,1,0,0,0,30.93,0H25.56A1,1,0,0,0,24.5.94a1,1,0,0,0,1.06.94h2.91l.31,0L23.06,7.49a8.21,8.21,0,0,0-8-1.37c.46.49.88,1,1.32,1.39a.51.51,0,0,0,.33.08,12.74,12.74,0,0,1,2.14,0,6.55,6.55,0,1,1-6.95,3.66.33.33,0,0,0,0-.27A4.34,4.34,0,0,0,10.54,9.9a8.24,8.24,0,0,0,1.51,10.27A8.4,8.4,0,0,0,24.38,8.82l5.71-5.58a.62.62,0,0,1,0,.11V6.44a1,1,0,0,0,.95,1.06A1,1,0,0,0,32,6.43Z"/></svg>