<svg id="圖層_1" data-name="圖層 1" xmlns="http://www.w3.org/2000/svg" viewBox="0 0 27.36 32"><defs><style>.cls-1{fill:#fff;}</style></defs><path class="cls-1" d="M15.27,0C24.69,0,30,8.26,26.07,16.6c-.52,1.12-1.11,2.21-1.71,3.29a6.33,6.33,0,0,0,0,6.52c.65,1.17,1.29,2.33,1.95,3.49.29.5.48,1-.14,1.34s-.88-.08-1.15-.51a26.1,26.1,0,0,1-2.64-5.05,6.83,6.83,0,0,1,.14-5.29c.56-1.26,1.19-2.49,1.83-3.71,2.44-4.7,1.94-9.3-1.37-12.33a11.22,11.22,0,0,0-13.41-1c-3.19,2.09-5.41,4.8-4.95,9A3.17,3.17,0,0,1,4,14.18c-.55,1-1.14,2-1.72,3C1.45,18.59,1.44,18.59,3,19l.41.11c1.32.35.47,1.24.57,1.94s1.71,0,1.74,1.24c0,.17-.11.48-.2.5-1.68.33-.78,1.84-1.22,2.72-.36.71.4,1.06,1,1.27a15.6,15.6,0,0,0,4.06.78,4.32,4.32,0,0,1,3.87,3.11c.19.49.26.95-.27,1.25s-.93,0-1.09-.53c-.59-1.85-2-2.35-3.75-2.45A10.67,10.67,0,0,1,4.28,28c-.7-.33-1.6-.82-1.44-1.59.4-1.93-1.46-3.57-.55-5.53.25-.54-.43-.48-.74-.59C-.09,19.64-.39,18.87.46,17.3c.39-.71.78-1.42,1.21-2.1a9.09,9.09,0,0,0,1.39-4.5c.33-5,3.59-8,8-9.86A9.21,9.21,0,0,1,15.27,0Z"/><path class="cls-1" d="M18.36,25A16.06,16.06,0,0,1,19,20.6c1-2.69-1.94-5.89-4.57-5.52a3,3,0,0,1-3.14-1.26.64.64,0,0,0-.72-.32c-1.88.39-2.74-1-3.36-2.27s-.07-2.67.9-3.91c2.91-3.76,8.3-4,11.84-2a9.53,9.53,0,0,1,3.3,3.83c.59,1-.23,5.13-1.25,5.59-2.14,1-1.91,2.61-1.85,4.44a20.41,20.41,0,0,1-.63,4.21,8.19,8.19,0,0,0,.65,5.29c.16.31.51.71,0,1s-.74-.21-.95-.58A8.51,8.51,0,0,1,18.36,25ZM18.2,8.22c.54.1,1.24-.1,1.3.5.07.76-.64.43-1.05.5a2.63,2.63,0,0,0-1.22.34,13.21,13.21,0,0,1-4.38,2.17,1.08,1.08,0,0,0-.27,1.93,1.88,1.88,0,0,0,1.9.27c.47-.2.85,0,1.25,0,1.45.05,2.38,2,4.12,1,.64-.39,1.42-.56,1.85-1.24.58-.9.29-1.47-.78-1.47a7,7,0,0,0-3.12.94c-.3.15-.67.33-.89-.05s.1-.69.46-.87a8.47,8.47,0,0,1,3.82-1.05c1.09,0,1.68-.77,1.14-1.54-.86-1.2-1.43-2.65-2.9-3.4C16.16,4.57,12,4.43,9,8.07,7.74,9.53,7.72,9.8,9,11.23a1.18,1.18,0,0,1,.16.52,1,1,0,0,0,1.71.5,5.65,5.65,0,0,1,3.21-2.15C15.54,9.58,16.62,8.24,18.2,8.22Z"/></svg>