<svg id="圖層_1" data-name="圖層 1" xmlns="http://www.w3.org/2000/svg" viewBox="0 0 32 29.75"><defs><style>.cls-1{fill:#fff;}</style></defs><path class="cls-1" d="M31.7,10a1.14,1.14,0,0,0-.87-.35l-.37,0a10.45,10.45,0,0,0-1.53.45,3.62,3.62,0,0,1-1.24.24,2.62,2.62,0,0,1-.73-.1l-.57-.14c-.39-.09-.8-.19-1.18-.31L23.74,9.3c-1.81-.58-3.68-1.18-5.56-1.65-.62-.15-1.26-.34-1.87-.52L15,6.74A14,14,0,0,1,9.62,3.89c-1-.85-2-1.73-3-2.58L5.35.24A.89.89,0,0,0,4.78,0a.68.68,0,0,0-.51.23.68.68,0,0,0-.19.5.83.83,0,0,0,.3.58C6.29,3,7.91,4.4,9.48,5.58a13.72,13.72,0,0,0,4.29,2.28l.92.29c.44.14.88.28,1.33.4l2.18.61c1.05.29,2.14.59,3.2.9s2,.6,2.92.9l1.55.5a6.34,6.34,0,0,0,1.83.29,5.2,5.2,0,0,0,2.15-.46,3.3,3.3,0,0,1,.63-.2h.05v0a4.09,4.09,0,0,1-2.11,2.64,4.31,4.31,0,0,1-2.16.55l-.42,0c-1-.08-2-.13-2.92-.16h-.35a9.82,9.82,0,0,0-5.19,1.44l-.88.55c-.37.24-.76.49-1.15.72a5.59,5.59,0,0,1-1.18.57,3.54,3.54,0,0,1-.9.14,1.9,1.9,0,0,1-1.57-.86l-.08-.09c-.12-.16-.24-.3-.33-.45l-.82-1.41L9.39,12.92A7.55,7.55,0,0,0,7.1,10.36c-.34-.22-.67-.46-1-.69s-.85-.59-1.29-.87C4,8.26,3.09,7.74,2.24,7.23l-1-.63a1,1,0,0,0-.5-.16.67.67,0,0,0-.59.35.73.73,0,0,0,.31,1L2.13,8.89l.8.5c.62.41,1.27.82,1.95,1.18a8.1,8.1,0,0,1,3.25,3c.2.34.4.69.59,1s.54,1,.83,1.42A15,15,0,0,0,10.9,18,2.88,2.88,0,0,0,13,19l.37,0a4.53,4.53,0,0,0,2.26-.62c.63-.36,1.17-.7,1.66-1a9.47,9.47,0,0,1,5.47-1.76c.24,0,.49,0,.73,0l1.83.12.55,0h.37A5.73,5.73,0,0,0,29.16,15,5.9,5.9,0,0,0,31,13.34a4.42,4.42,0,0,0,1-2.28A1.38,1.38,0,0,0,31.7,10Z"/><path class="cls-1" d="M24.51,27.83c-.23-.18-.44-.33-.64-.46a2.64,2.64,0,0,0-1.49-.46,2.7,2.7,0,0,0-.49,0l-3.1.57-1.69.31c-.66.13-1.32.24-1.93.35l-.72.13A2.74,2.74,0,0,1,12.84,28L5.63,22.86a.54.54,0,0,1-.2-.78.46.46,0,0,1,.4-.22.8.8,0,0,1,.4.12l3.89,2.39a.84.84,0,0,0,.46.15.68.68,0,0,0,.58-.32.7.7,0,0,0,.1-.54.8.8,0,0,0-.39-.51l-4-2.45a1.92,1.92,0,0,0-1.49-.23A1.87,1.87,0,0,0,4,22a1.9,1.9,0,0,0,.8,2l.83.59c2.09,1.49,4.25,3,6.39,4.52a3.72,3.72,0,0,0,1,.49,4.11,4.11,0,0,0,1.13.15,5.51,5.51,0,0,0,1.09-.11l6.9-1.27a.93.93,0,0,1,.23,0,1.33,1.33,0,0,1,.75.24l.24.18.33.23a.81.81,0,0,0,.43.14.72.72,0,0,0,.4-1.31Z"/><path class="cls-1" d="M27.71,23.22l-.06,0-.87-.63c-.65-.47-1.32-.95-2-1.44a4.11,4.11,0,0,0-2.54-.87,5.33,5.33,0,0,0-.88.08c-.78.15-1.56.37-2.31.58l-.56.16L13.7,22.41l-.7.2a2,2,0,0,0-1.51,1.91,1.92,1.92,0,0,0,1.92,1.93l.28,0,4.46-.68.17,0a.67.67,0,0,0,.54.29.75.75,0,0,0,.7-1,1.1,1.1,0,0,0-1.08-.79h-.2l-1.11.18L13.51,25h-.07a.53.53,0,0,1-.49-.35.52.52,0,0,1,.25-.61l.23-.08,3.05-.86,1.36-.38c1.12-.32,2.28-.65,3.43-.94a3.83,3.83,0,0,1,.93-.12,3,3,0,0,1,1.91.69c.31.26.64.49,1,.72l.43.3,1.37,1a1,1,0,0,0,.55.2.66.66,0,0,0,.55-.3A.74.74,0,0,0,27.71,23.22Z"/><path class="cls-1" d="M11.55,13.16A3.31,3.31,0,0,0,14,14.23h.08l.2,0a4.93,4.93,0,0,0,.61-.11.79.79,0,0,0,.48-.5.68.68,0,0,0-.11-.6.72.72,0,0,0-.59-.28h-.15a3,3,0,0,1-.56.06,1.74,1.74,0,0,1-.82-.19,2,2,0,0,1-.9-.86.74.74,0,0,0-.65-.41.82.82,0,0,0-.31.07.73.73,0,0,0-.39.45.71.71,0,0,0,.07.55,6.55,6.55,0,0,0,.53.71Z"/></svg>