<svg id="圖層_1" data-name="圖層 1" xmlns="http://www.w3.org/2000/svg" viewBox="0 0 32 28.04"><defs><style>.cls-1{fill:#fff;}</style></defs><path class="cls-1" d="M30.41,15.36c-2.14-2.69-7.78-3.15-9.24.26a5.54,5.54,0,0,0-2.68-1.95,6.47,6.47,0,0,0-6.9,1.62c0-.13,0-.25,0-.39,0-2.25-.06-4.87.76-7a3.61,3.61,0,0,0,2.45.84c1.82-.09,3.55-.24,4.28-2.17a5.3,5.3,0,0,0-1.37-5.27c-.89-1-1.23-1-2.52-.91a32.16,32.16,0,0,0-3.8.37c-2.1.38-3.85,3.6-4.86,5.33C3.54,11.18.77,16.82.33,22.83a.38.38,0,0,0,.18.32c8,5.24,19.72,6.39,28,1.19A6.1,6.1,0,0,0,30.41,15.36Zm-2.49,8.48a25.09,25.09,0,0,1-14.67,2.95,27,27,0,0,1-7.42-1.71,24.38,24.38,0,0,1-3.74-1.82c-1.52-.9-.79-2.75-.44-4.24a38.1,38.1,0,0,1,3.22-8.24A39.36,39.36,0,0,1,9.33,3.35a5.85,5.85,0,0,1,1.79-1.68,8.7,8.7,0,0,1,3.18-.52A3.68,3.68,0,0,1,17,1.59,4.65,4.65,0,0,1,18.43,4c.28,1.08.2,2.62-.78,3.34a5,5,0,0,1-2.5.61,4,4,0,0,1-.77.06c-.67-.08-1.86-.82-1.26-1.66a2.91,2.91,0,0,1,1.76-.53c.48,0,.48-.73,0-.74-.9,0-2.81.51-2.94,1.64a1.31,1.31,0,0,0,0,.28,14.34,14.34,0,0,0-1,5.43c0,1,0,2,0,3-.14,1.86-1.43,3.34-2.71,4.63-.34.34.19.86.53.52a9.38,9.38,0,0,0,2.68-4,.28.28,0,0,0,.09-.07,5.93,5.93,0,0,1,7-2,4.19,4.19,0,0,1,2.48,2.22c.11.32.64.39.72,0,.78-4.22,7.22-3.06,8.73.05C31.71,19.52,30.47,22.35,27.92,23.84Z"/><path class="cls-1" d="M19.8,20.52a4.87,4.87,0,0,1-3.88,1.41,8,8,0,0,1-4.22-1.18c-.4-.27-.77.37-.38.64A9.2,9.2,0,0,0,16.4,22.7a5.44,5.44,0,0,0,3.92-1.65C20.68,20.73,20.15,20.2,19.8,20.52Z"/><path class="cls-1" d="M30.67,15.16a6.85,6.85,0,0,0-5.23-2.28A4.86,4.86,0,0,0,21.11,15a6.22,6.22,0,0,0-2.51-1.65A7.18,7.18,0,0,0,16.25,13a6.82,6.82,0,0,0-4.31,1.59v-.11a20,20,0,0,1,.59-6A4.11,4.11,0,0,0,14.69,9h.14c1.67-.07,3.74-.17,4.58-2.38A5.7,5.7,0,0,0,18,1,2.44,2.44,0,0,0,15.9,0l-.71,0H15A30.59,30.59,0,0,0,11.35.4C9.24.78,7.57,3.64,6.47,5.53l-.2.35C3.43,10.72.47,16.52,0,22.81a.7.7,0,0,0,.33.62A29.29,29.29,0,0,0,16.05,28h0a23.81,23.81,0,0,0,12.67-3.42A7,7,0,0,0,31.91,20,6,6,0,0,0,30.67,15.16Zm-2.91,8.39a23.79,23.79,0,0,1-12,3c-.81,0-1.64,0-2.45-.1A27,27,0,0,1,6,24.78,24.77,24.77,0,0,1,2.25,23c-1-.62-.83-1.76-.42-3.32,0-.19.1-.38.14-.56a37.16,37.16,0,0,1,3.19-8.17l0,0a38.69,38.69,0,0,1,4.4-7.34l.11-.12A5,5,0,0,1,11.26,2a6.5,6.5,0,0,1,2.57-.46l.5,0,.27,0c.27,0,.52,0,.77,0a2.16,2.16,0,0,1,1.45.43,4.48,4.48,0,0,1,1.3,2.2,3,3,0,0,1-.67,3,4,4,0,0,1-2,.51l-.3,0-.25,0a2.73,2.73,0,0,1-.38,0h-.07A1.6,1.6,0,0,1,13.32,7a.42.42,0,0,1,.07-.44,2.71,2.71,0,0,1,1.45-.39h.05a.67.67,0,0,0,.68-.68.7.7,0,0,0-.68-.72h-.07c-1,0-3.06.58-3.2,1.93a1.13,1.13,0,0,0,0,.26,14.25,14.25,0,0,0-1,5.47c0,.45,0,.91,0,1.35s0,1.11,0,1.66c-.13,1.79-1.42,3.21-2.61,4.41a.68.68,0,0,0-.15.75.73.73,0,0,0,.66.45.64.64,0,0,0,.48-.21,10,10,0,0,0,2.74-4l.05-.06a6,6,0,0,1,4.55-2.35,5.48,5.48,0,0,1,2,.4,4,4,0,0,1,2.29,2,.75.75,0,0,0,.7.48.64.64,0,0,0,.65-.53,3.09,3.09,0,0,1,3.31-2.48,5.5,5.5,0,0,1,4.8,2.61C31.27,19.36,30.34,22.05,27.76,23.55Z"/><path class="cls-1" d="M20,20.1a.67.67,0,0,0-.46.18,4.56,4.56,0,0,1-3.25,1.33h-.39a7.71,7.71,0,0,1-4.06-1.12.63.63,0,0,0-.37-.12.68.68,0,0,0-.65.5.71.71,0,0,0,.28.8A9.62,9.62,0,0,0,16.39,23h.16a5.86,5.86,0,0,0,4-1.74.64.64,0,0,0,.19-.72A.75.75,0,0,0,20,20.1Z"/></svg>