<?xml version="1.0" encoding="utf-8"?>
<!-- Generator: Adobe Illustrator 25.2.1, SVG Export Plug-In . SVG Version: 6.00 Build 0)  -->
<svg version="1.1" id="圖層_1" xmlns="http://www.w3.org/2000/svg" xmlns:xlink="http://www.w3.org/1999/xlink" x="0px" y="0px"
	 viewBox="0 0 115 40" style="enable-background:new 0 0 115 40;" xml:space="preserve">
<style type="text/css">
	.st0{fill:#FFFFFF;}
</style>
<g>
	<path class="st0" d="M16.43,35.53c-0.24-0.36-0.64-0.57-1.08-0.57c-0.44-0.02-0.87,0.17-1.16,0.5c-0.31,0.43-0.47,0.94-0.45,1.47
		c-0.04,0.57,0.13,1.14,0.47,1.6c0.28,0.33,0.7,0.51,1.13,0.49c0.28,0.01,0.55-0.08,0.77-0.24c0.28-0.24,0.51-0.53,0.68-0.87
		l-0.32-0.19c-0.12,0.27-0.31,0.52-0.53,0.71c-0.17,0.13-0.38,0.2-0.59,0.2c-0.26,0-0.5-0.15-0.61-0.39
		c-0.19-0.41-0.28-0.87-0.26-1.33h2.32C16.83,36.44,16.7,35.95,16.43,35.53z M14.49,36.58c0.01-0.29,0.08-0.57,0.21-0.83
		c0.12-0.25,0.37-0.41,0.65-0.42c0.25,0,0.46,0.16,0.54,0.4h0c0.12,0.27,0.18,0.56,0.18,0.85H14.49z"/>
	<path class="st0" d="M20.64,38.25v-1.92c0.01-0.32-0.09-0.64-0.31-0.89c-0.18-0.2-0.45-0.32-0.72-0.31c-0.17,0-0.35,0.06-0.49,0.16
		c-0.14,0.1-0.26,0.22-0.35,0.36v-0.6h-0.37c-0.14,0.17-0.33,0.28-0.54,0.33v0.37c0.05-0.01,0.11,0.02,0.14,0.06
		c0.03,0.08,0.04,0.16,0.04,0.24v2.15c0.01,0.1,0,0.2-0.04,0.3c-0.02,0.04-0.07,0.06-0.14,0.06v0.37h1.08v-0.37
		c-0.07,0-0.11-0.02-0.13-0.05c-0.03-0.1-0.05-0.2-0.04-0.31v-2.15c0.09-0.14,0.21-0.27,0.34-0.38c0.11-0.1,0.26-0.17,0.42-0.17
		c0.11,0,0.22,0.06,0.27,0.16c0.08,0.21,0.12,0.44,0.11,0.67v1.92c0.01,0.09-0.01,0.17-0.05,0.25c-0.02,0.04-0.07,0.06-0.15,0.06
		v0.37h1.1v-0.37c-0.06,0.01-0.11-0.02-0.14-0.06C20.64,38.42,20.63,38.34,20.64,38.25z"/>
	<path class="st0" d="M24.48,35.53c-0.24-0.36-0.65-0.57-1.08-0.57c-0.44-0.02-0.87,0.17-1.16,0.5c-0.31,0.42-0.47,0.94-0.45,1.47
		c-0.04,0.57,0.13,1.14,0.47,1.6c0.28,0.33,0.7,0.51,1.13,0.49c0.28,0.01,0.55-0.08,0.77-0.24c0.28-0.24,0.51-0.53,0.68-0.87
		l-0.32-0.19c-0.12,0.27-0.31,0.52-0.53,0.71c-0.17,0.13-0.38,0.2-0.59,0.2c-0.26,0-0.5-0.15-0.61-0.39
		c-0.19-0.41-0.28-0.87-0.26-1.33h2.32C24.88,36.44,24.75,35.95,24.48,35.53z M22.54,36.58c0.01-0.29,0.08-0.57,0.21-0.83
		c0.12-0.25,0.37-0.41,0.65-0.42c0.25,0,0.47,0.16,0.54,0.4c0.12,0.27,0.18,0.56,0.18,0.85H22.54z"/>
	<path class="st0" d="M28.33,34.96c-0.22,0.01-0.43,0.08-0.61,0.2c-0.21,0.14-0.4,0.32-0.56,0.52v-0.63h-0.37
		c-0.24,0.16-0.5,0.28-0.79,0.34v0.37h0.2c0.06-0.01,0.12,0.01,0.17,0.03c0.03,0.02,0.05,0.07,0.05,0.14v2.39
		c0.01,0.07,0,0.14-0.04,0.2c-0.06,0.03-0.13,0.04-0.2,0.03v0.37h1.38v-0.37H27.4c-0.07,0.01-0.14-0.01-0.2-0.04
		c-0.03-0.02-0.05-0.09-0.05-0.2V36.1c0.05-0.11,0.12-0.21,0.21-0.28c0.07-0.07,0.16-0.11,0.25-0.13c0.18,0,0.35,0.1,0.44,0.26
		c0.07,0.15,0.21,0.25,0.38,0.27c0.15,0,0.3-0.06,0.39-0.18c0.08-0.11,0.13-0.24,0.13-0.38c0.01-0.18-0.04-0.35-0.14-0.49
		C28.69,35.03,28.52,34.96,28.33,34.96z"/>
	<path class="st0" d="M31.95,35.44c-0.25-0.19-0.55-0.29-0.86-0.31c-0.4,0-0.78,0.19-1.04,0.5c-0.29,0.32-0.44,0.74-0.43,1.17
		c-0.02,0.4,0.12,0.8,0.39,1.09c0.28,0.31,0.69,0.49,1.11,0.49c0.21-0.01,0.41-0.07,0.59-0.17v0.21c0.01,0.33-0.05,0.65-0.18,0.95
		c-0.07,0.18-0.24,0.31-0.44,0.31c-0.16,0-0.33-0.05-0.46-0.15c-0.06-0.04-0.1-0.1-0.11-0.17v-0.22c0.01-0.11-0.03-0.22-0.11-0.3
		c-0.08-0.09-0.2-0.13-0.31-0.13c-0.1,0-0.2,0.04-0.28,0.12c-0.08,0.09-0.11,0.2-0.11,0.31c0,0.22,0.1,0.42,0.28,0.54
		c0.32,0.22,0.71,0.32,1.09,0.31c0.39,0.02,0.76-0.13,1.04-0.4c0.28-0.32,0.42-0.74,0.39-1.17V35.2h-0.27L31.95,35.44z M31.71,37.84
		c-0.18,0.12-0.38,0.18-0.59,0.19c-0.23-0.02-0.43-0.17-0.53-0.38c-0.15-0.25-0.23-0.55-0.23-0.84c-0.01-0.33,0.06-0.66,0.22-0.95
		c0.09-0.2,0.29-0.34,0.51-0.36c0.22,0.01,0.44,0.08,0.62,0.22V37.84z"/>
	<path class="st0" d="M36.27,35.53c-0.24-0.36-0.64-0.57-1.08-0.57c-0.44-0.02-0.87,0.17-1.16,0.5c-0.31,0.43-0.47,0.94-0.45,1.47
		c-0.04,0.57,0.12,1.14,0.47,1.6c0.28,0.33,0.7,0.51,1.13,0.49c0.28,0.01,0.55-0.08,0.77-0.24c0.28-0.24,0.51-0.53,0.68-0.87
		l-0.32-0.19c-0.12,0.27-0.31,0.52-0.53,0.71c-0.17,0.13-0.38,0.2-0.59,0.2c-0.26,0-0.5-0.15-0.61-0.39
		c-0.19-0.41-0.28-0.87-0.26-1.33h2.32C36.67,36.44,36.54,35.95,36.27,35.53z M34.33,36.58c0.01-0.29,0.08-0.57,0.21-0.83
		c0.12-0.25,0.37-0.41,0.65-0.42c0.25,0,0.47,0.16,0.54,0.4c0.12,0.27,0.18,0.56,0.18,0.85H34.33z"/>
	<path class="st0" d="M39.76,38.51c-0.08,0.02-0.16,0.03-0.24,0.03c-0.09,0.01-0.17-0.03-0.23-0.1c-0.05-0.1-0.07-0.21-0.06-0.31
		v-2.59h0.92v-0.37h-0.92V33.8h-0.37c0,0.34-0.1,0.68-0.28,0.97c-0.1,0.22-0.31,0.38-0.55,0.4v0.37h0.47v2.59
		c-0.02,0.24,0.05,0.47,0.21,0.65c0.18,0.16,0.42,0.25,0.66,0.24c0.2,0.01,0.39-0.04,0.57-0.13c0.19-0.15,0.34-0.34,0.45-0.55h-0.37
		C39.95,38.42,39.86,38.48,39.76,38.51z"/>
	<path class="st0" d="M43.43,38.28v-3.24h-0.37c-0.25,0.16-0.52,0.28-0.8,0.36v0.37h0.2c0.06,0,0.11,0.01,0.16,0.04
		c0.05,0.03,0.08,0.09,0.08,0.16v2.31c0,0.08-0.03,0.15-0.08,0.2c-0.11,0.07-0.24,0.09-0.36,0.08v0.37h1.57v-0.37
		c-0.12,0.02-0.24-0.01-0.34-0.08C43.45,38.42,43.43,38.35,43.43,38.28z"/>
	<path class="st0" d="M43.32,33.95c0.09-0.1,0.14-0.22,0.13-0.35c0-0.12-0.05-0.23-0.14-0.31c-0.08-0.08-0.19-0.13-0.31-0.13
		c-0.12,0-0.24,0.04-0.34,0.13c-0.08,0.08-0.12,0.19-0.13,0.31c-0.01,0.13,0.04,0.26,0.13,0.35c0.09,0.08,0.21,0.13,0.33,0.13
		C43.12,34.08,43.23,34.03,43.32,33.95z"/>
	<path class="st0" d="M47.7,38.54c-0.16,0.08-0.33,0.12-0.51,0.12c-0.3-0.03-0.56-0.22-0.68-0.5c-0.18-0.34-0.27-0.72-0.26-1.1
		c-0.02-0.42,0.06-0.84,0.21-1.23c0.16-0.32,0.37-0.48,0.61-0.49c0.13-0.01,0.26,0.02,0.37,0.1c0.09,0.08,0.14,0.19,0.13,0.31
		c0,0.12,0.04,0.24,0.13,0.33c0.09,0.08,0.2,0.13,0.32,0.13c0.1,0,0.2-0.03,0.28-0.1c0.09-0.1,0.13-0.23,0.13-0.36
		c-0.01-0.2-0.12-0.38-0.28-0.49c-0.69-0.48-1.64-0.35-2.18,0.3c-0.31,0.44-0.47,0.96-0.46,1.5c-0.01,0.48,0.15,0.96,0.44,1.34
		c0.29,0.39,0.75,0.63,1.24,0.63c0.24,0,0.47-0.06,0.68-0.18c0.3-0.2,0.54-0.48,0.71-0.79h-0.37C48.07,38.24,47.9,38.41,47.7,38.54z
		"/>
	<path class="st0" d="M56.45,38.49c-0.04-0.05-0.06-0.11-0.06-0.18v-4.53c0-0.07,0.01-0.14,0.05-0.2c0.03-0.05,0.09-0.08,0.15-0.08
		h0.14v-0.37h-1.42v0.37h0.13c0.07,0,0.13,0.02,0.17,0.08c0.04,0.06,0.06,0.13,0.06,0.2v1.93H54.3v-1.92c0-0.07,0.01-0.13,0.04-0.2
		c0.03-0.05,0.09-0.08,0.16-0.08h0.15v-0.37h-1.43v0.37h0.13c0.07-0.01,0.13,0.02,0.17,0.08c0.03,0.06,0.05,0.13,0.05,0.2v4.53
		c0,0.06-0.02,0.13-0.06,0.18c-0.05,0.04-0.11,0.07-0.18,0.06h-0.12v0.37h1.43v-0.37h-0.13c-0.06,0.01-0.13-0.02-0.17-0.06
		c-0.03-0.06-0.04-0.12-0.04-0.18v-2.25h1.36v2.25c0,0.07-0.02,0.13-0.06,0.18c-0.05,0.04-0.1,0.06-0.16,0.06h-0.13v0.37h1.42v-0.37
		h-0.12C56.55,38.56,56.49,38.54,56.45,38.49z"/>
	<path class="st0" d="M60.08,35.53c-0.24-0.36-0.64-0.57-1.08-0.57c-0.44-0.02-0.87,0.17-1.16,0.5c-0.31,0.43-0.47,0.94-0.45,1.47
		c-0.04,0.57,0.13,1.14,0.47,1.6c0.28,0.33,0.7,0.51,1.13,0.49c0.28,0.01,0.55-0.08,0.77-0.24c0.28-0.24,0.51-0.53,0.68-0.87
		l-0.32-0.19c-0.12,0.27-0.31,0.52-0.53,0.71c-0.17,0.13-0.38,0.2-0.59,0.2c-0.26-0.01-0.5-0.15-0.61-0.39
		c-0.19-0.41-0.28-0.87-0.26-1.33h2.32C60.48,36.44,60.35,35.95,60.08,35.53z M58.14,36.58c0.01-0.29,0.08-0.57,0.21-0.83
		c0.12-0.25,0.37-0.41,0.65-0.42c0.25,0,0.46,0.16,0.54,0.4c0.12,0.27,0.18,0.56,0.18,0.85H58.14z"/>
	<path class="st0" d="M64.08,38.66c-0.03,0-0.05-0.02-0.07-0.06C64,38.56,64,38.48,63.99,38.36v-2.24c0-0.31-0.12-0.6-0.34-0.82
		c-0.22-0.23-0.53-0.35-0.85-0.35c-0.35,0-0.68,0.13-0.93,0.38c-0.2,0.15-0.32,0.37-0.35,0.61c0,0.1,0.04,0.2,0.11,0.28
		c0.08,0.07,0.19,0.11,0.3,0.11c0.13,0,0.25-0.04,0.35-0.12c0.09-0.06,0.15-0.16,0.16-0.27c-0.02-0.17,0.02-0.34,0.09-0.49
		c0.06-0.09,0.16-0.14,0.27-0.13c0.14,0.01,0.27,0.09,0.34,0.22c0.09,0.18,0.13,0.38,0.12,0.57v0.5c-0.47-0.01-0.92,0.11-1.32,0.35
		c-0.35,0.23-0.56,0.63-0.55,1.05c-0.01,0.26,0.09,0.52,0.28,0.71c0.18,0.19,0.44,0.29,0.7,0.28c0.25,0,0.49-0.09,0.68-0.24
		c0.07-0.06,0.14-0.14,0.23-0.23c0.01,0.11,0.06,0.22,0.14,0.31c0.12,0.11,0.28,0.17,0.44,0.16c0.24,0,0.41-0.17,0.5-0.52l-0.16-0.1
		C64.15,38.57,64.11,38.66,64.08,38.66z M63.26,38.23c-0.06,0.08-0.13,0.15-0.2,0.21c-0.13,0.12-0.3,0.2-0.48,0.21
		c-0.12,0.01-0.24-0.04-0.32-0.13c-0.1-0.14-0.15-0.31-0.14-0.49c0-0.28,0.11-0.54,0.31-0.72v0c0.24-0.18,0.53-0.29,0.83-0.31V38.23
		z"/>
	<path class="st0" d="M67.24,38.24v-5.1h-0.28c-0.28,0.12-0.56,0.21-0.86,0.27v0.37c0.11-0.01,0.23,0.01,0.33,0.05
		c0.05,0.05,0.08,0.13,0.08,0.2v4.2c0,0.09-0.02,0.17-0.08,0.24c-0.12,0.07-0.27,0.1-0.41,0.09v0.37h1.7v-0.37
		c-0.14,0.02-0.28-0.01-0.39-0.09C67.27,38.41,67.24,38.32,67.24,38.24z"/>
	<path class="st0" d="M71.51,38.51c-0.08,0.02-0.16,0.03-0.24,0.03c-0.09,0.01-0.17-0.03-0.23-0.1c-0.05-0.1-0.07-0.21-0.06-0.31
		v-2.59h0.92v-0.37h-0.92V33.8h-0.37c0,0.34-0.1,0.68-0.28,0.97c-0.1,0.22-0.31,0.38-0.55,0.4v0.37h0.47v2.59
		c-0.02,0.24,0.05,0.47,0.21,0.65c0.18,0.16,0.42,0.25,0.66,0.24c0.2,0.01,0.39-0.04,0.57-0.13c0.19-0.15,0.34-0.34,0.45-0.55h-0.37
		C71.7,38.42,71.61,38.48,71.51,38.51z"/>
	<path class="st0" d="M76.19,38.3v-2.12c0-0.29-0.11-0.56-0.3-0.78c-0.2-0.21-0.49-0.33-0.79-0.32c-0.26,0-0.52,0.1-0.71,0.28
		c-0.06,0.06-0.11,0.12-0.17,0.19v-2.42h-0.28c-0.23,0.12-0.47,0.21-0.72,0.28v0.37c0.08-0.01,0.15,0.01,0.22,0.05
		c0.03,0.06,0.05,0.13,0.05,0.2v4.2c0,0.08-0.01,0.16-0.05,0.24c-0.03,0.05-0.11,0.08-0.22,0.09v0.37h1.25v-0.37
		c-0.11,0-0.18-0.03-0.21-0.09c-0.03-0.08-0.04-0.16-0.04-0.24V36.1c0.08-0.11,0.18-0.22,0.3-0.3c0.13-0.11,0.29-0.18,0.47-0.2
		c0.15,0,0.29,0.08,0.37,0.21c0.07,0.11,0.1,0.24,0.09,0.37v2.11c0,0.06-0.01,0.11-0.04,0.16c-0.02,0.06-0.09,0.09-0.21,0.09v0.37
		h1.23v-0.36c-0.08,0.01-0.16-0.02-0.2-0.09C76.21,38.43,76.2,38.37,76.19,38.3z"/>
	<path class="st0" d="M82.76,34.96c-0.4,0.01-0.77,0.22-0.99,0.56l0,0c-0.59,0.94-0.57,2.13,0.04,3.05c0.22,0.3,0.58,0.46,0.95,0.46
		c0.36-0.01,0.7-0.18,0.92-0.47c0.35-0.45,0.52-1,0.5-1.56c0.01-0.51-0.13-1.01-0.4-1.45C83.56,35.19,83.18,34.96,82.76,34.96z
		 M83.17,38.29c-0.12,0.21-0.25,0.31-0.41,0.31c-0.19-0.02-0.36-0.14-0.43-0.31h0c-0.2-0.41-0.29-0.85-0.26-1.3
		c-0.01-0.42,0.07-0.83,0.23-1.21c0.15-0.27,0.3-0.4,0.47-0.4c0.16,0,0.31,0.13,0.45,0.4c0.17,0.38,0.25,0.79,0.24,1.21
		C83.47,37.44,83.38,37.89,83.17,38.29z"/>
	<path class="st0" d="M87.68,34.96c-0.22,0.01-0.43,0.08-0.61,0.2c-0.21,0.14-0.4,0.32-0.56,0.52v-0.63h-0.37
		c-0.24,0.16-0.51,0.28-0.79,0.34v0.37h0.2c0.06,0,0.12,0.01,0.17,0.03c0.03,0.02,0.05,0.07,0.05,0.14v2.39
		c0.01,0.07,0,0.14-0.04,0.2c-0.06,0.03-0.13,0.04-0.2,0.03v0.37h1.38v-0.37h-0.16c-0.07,0.01-0.14-0.01-0.2-0.04
		c-0.03-0.02-0.05-0.09-0.05-0.2V36.1c0.05-0.11,0.12-0.2,0.21-0.28c0.07-0.07,0.16-0.11,0.25-0.13c0.18,0,0.35,0.1,0.44,0.26
		c0.07,0.15,0.21,0.25,0.38,0.27c0.15,0,0.3-0.06,0.39-0.18c0.08-0.11,0.13-0.24,0.13-0.38c0.01-0.18-0.04-0.35-0.14-0.49
		C88.04,35.03,87.87,34.96,87.68,34.96z"/>
	<path class="st0" d="M90.45,33.16c-0.12,0-0.24,0.04-0.34,0.13c-0.08,0.08-0.12,0.19-0.13,0.31c-0.01,0.13,0.04,0.26,0.13,0.35
		c0.09,0.08,0.21,0.13,0.33,0.13c0.12,0,0.23-0.05,0.31-0.13c0.09-0.1,0.14-0.22,0.13-0.35c0-0.12-0.05-0.23-0.14-0.31h0
		C90.68,33.2,90.57,33.16,90.45,33.16z"/>
	<path class="st0" d="M90.88,38.28v-3.24h-0.37c-0.25,0.16-0.52,0.28-0.8,0.36v0.37h0.2c0.06,0,0.11,0.01,0.16,0.04
		c0.05,0.03,0.08,0.09,0.08,0.16v2.31c0,0.08-0.03,0.15-0.08,0.2c-0.11,0.07-0.24,0.09-0.36,0.08v0.37h1.57v-0.37
		c-0.12,0.02-0.24-0.01-0.34-0.08C90.9,38.42,90.88,38.35,90.88,38.28z"/>
	<path class="st0" d="M95.32,35.44c-0.25-0.19-0.55-0.29-0.86-0.31c-0.4,0-0.78,0.19-1.04,0.5c-0.29,0.32-0.44,0.74-0.43,1.17
		c-0.02,0.4,0.12,0.8,0.39,1.09c0.28,0.31,0.69,0.49,1.11,0.49c0.21-0.01,0.41-0.07,0.59-0.17v0.21c0.01,0.33-0.05,0.65-0.18,0.95
		c-0.07,0.18-0.24,0.31-0.44,0.31c-0.16,0-0.33-0.05-0.46-0.15c-0.06-0.04-0.1-0.1-0.11-0.17v-0.22c0.01-0.11-0.03-0.22-0.11-0.3
		c-0.08-0.09-0.2-0.13-0.31-0.13c-0.1,0-0.2,0.04-0.28,0.12c-0.08,0.09-0.11,0.2-0.11,0.31c0,0.22,0.1,0.42,0.28,0.54
		c0.32,0.22,0.71,0.32,1.09,0.31c0.39,0.02,0.76-0.13,1.04-0.4c0.28-0.32,0.42-0.74,0.39-1.17V35.2h-0.27L95.32,35.44z M95.09,37.84
		c-0.18,0.12-0.38,0.18-0.59,0.19c-0.23-0.02-0.43-0.17-0.53-0.38c-0.15-0.25-0.23-0.55-0.23-0.84c-0.01-0.33,0.06-0.66,0.22-0.95
		c0.09-0.2,0.29-0.34,0.51-0.36c0.22,0.01,0.44,0.08,0.62,0.22V37.84z"/>
	<path class="st0" d="M98.92,38.28v-3.24h-0.37c-0.25,0.16-0.52,0.28-0.8,0.36v0.37h0.2c0.06,0,0.11,0.01,0.16,0.04
		c0.05,0.03,0.08,0.09,0.08,0.16v2.31c0,0.08-0.02,0.15-0.08,0.2c-0.11,0.07-0.24,0.09-0.36,0.08v0.37h1.57v-0.37
		c-0.12,0.02-0.24-0.01-0.34-0.08C98.95,38.42,98.92,38.35,98.92,38.28z"/>
	<path class="st0" d="M98.5,33.16c-0.12,0-0.24,0.04-0.34,0.13c-0.08,0.08-0.12,0.19-0.13,0.31c-0.01,0.13,0.04,0.26,0.13,0.35
		c0.09,0.08,0.21,0.13,0.33,0.13c0.12,0,0.23-0.05,0.31-0.13c0.09-0.1,0.14-0.22,0.13-0.35c0-0.12-0.05-0.23-0.14-0.31h0
		C98.73,33.2,98.61,33.16,98.5,33.16z"/>
	<path class="st0" d="M103.91,38.25v-1.92c0.02-0.32-0.09-0.64-0.31-0.89c-0.18-0.2-0.45-0.32-0.72-0.31
		c-0.17,0-0.34,0.06-0.49,0.16c-0.14,0.1-0.26,0.22-0.35,0.36v-0.6h-0.37c-0.14,0.17-0.33,0.28-0.54,0.33v0.37
		c0.05-0.01,0.11,0.02,0.14,0.06c0.03,0.08,0.04,0.16,0.04,0.24v2.15c0.01,0.1,0,0.2-0.04,0.3c-0.02,0.04-0.07,0.06-0.14,0.06v0.37
		h1.08v-0.37c-0.05,0.01-0.1-0.01-0.13-0.05c-0.03-0.1-0.05-0.2-0.04-0.31v-2.15c0.09-0.14,0.21-0.27,0.34-0.38
		c0.11-0.1,0.26-0.17,0.42-0.17c0.11,0,0.22,0.06,0.27,0.16c0.08,0.21,0.12,0.44,0.11,0.67v1.92c0.01,0.09-0.01,0.17-0.05,0.25
		c-0.02,0.04-0.07,0.06-0.15,0.06v0.37h1.1v-0.37c-0.06,0.01-0.11-0.02-0.14-0.06C103.91,38.42,103.9,38.34,103.91,38.25z"/>
	<path class="st0" d="M37.44,21.87c2.42-0.03,4.71-1.12,6.28-2.96l-0.48-0.48c-1.69,1.55-3.38,2.31-5.04,2.31
		c-1.37,0.03-2.66-0.65-3.41-1.79c-0.83-1.14-1.25-2.52-1.21-3.93v-1.52h9.93c0.03-1.66-0.56-3.27-1.66-4.52
		c-1.1-1.29-2.72-2.02-4.41-2c-1.96-0.02-3.81,0.9-4.97,2.48c-1.24,1.49-1.91,3.37-1.9,5.31c-0.09,1.86,0.57,3.67,1.83,5.04
		C33.7,21.2,35.54,21.96,37.44,21.87z M34.55,9.35c0.57-1.04,1.67-1.68,2.86-1.66c2,0,3.03,1.69,3.03,5h-6.76
		C33.64,11.52,33.94,10.36,34.55,9.35z"/>
	<path class="st0" d="M54.86,20.59c-1.93,0-2.9-0.62-2.9-1.86V10.8h10.42v7.76c0.07,0.69-0.28,1.36-0.9,1.69
		c-0.66,0.28-1.39,0.4-2.1,0.35v0.69l8.66,0v-0.69c-0.68,0.04-1.36-0.06-2-0.31c-0.64-0.33-0.99-1.02-0.9-1.72V2.76
		c0-1.38,0.97-2.07,2.9-2.07V0h-8.66v0.69c0.73-0.03,1.46,0.09,2.14,0.35c0.59,0.41,0.92,1.11,0.86,1.83V10H51.96V2.76
		c0-1.38,0.97-2.07,2.9-2.07V0h-8.55v0.69h0.66c1.45,0,2.21,0.69,2.21,2.07v15.8c0,1.38-0.97,2.04-2.86,2.04v0.69h8.55V20.59z"/>
	<path class="st0" d="M78,21.87c1.97,0.04,3.87-0.73,5.24-2.14h0c2.9-2.95,2.9-7.67,0-10.62c-1.39-1.39-3.28-2.16-5.24-2.14
		c-1.99,0-3.9,0.81-5.3,2.23c-2.89,2.93-2.85,7.65,0.09,10.54C74.15,21.15,76.05,21.92,78,21.87z M74.49,9.9
		c0.38-0.79,1.02-1.44,1.82-1.82c1.94-0.94,4.28-0.12,5.22,1.82h0c0.64,1.39,0.95,2.92,0.9,4.45c0.05,1.56-0.25,3.12-0.86,4.55
		c-0.61,1.41-2.01,2.32-3.55,2.28c-2.93,0-4.38-2.28-4.38-6.83C73.57,12.82,73.86,11.3,74.49,9.9z"/>
	<path class="st0" d="M112.71,26.49c-0.68-0.14-1.31,0.14-1.78,0.77c-0.37-0.59-0.93-0.88-1.58-0.78c-0.87,0.13-1.57,0.92-1.57,1.76
		c0,0.04,0.01,0.07,0.01,0.11h-0.99c-0.18,0-0.33,0.15-0.33,0.33v0.31h-2.46l-0.71-3.61c-0.03-0.16-0.18-0.26-0.33-0.27
		c-0.16,0-0.3,0.12-0.32,0.28l-0.69,4.19l-2.27-1.2c-0.13-0.07-0.29-0.04-0.39,0.06l-0.92,0.93h-1.95v-0.44
		c0-0.1-0.04-0.19-0.11-0.25s-0.16-0.1-0.26-0.08l-2.17,0.26c-0.03,0-0.06,0.01-0.09,0.02l-0.52,0.21l-2.3-0.86
		c-0.12-0.04-0.26-0.01-0.35,0.08l-1.42,1.44l-2.79-0.23l-0.84-3.64c-0.04-0.16-0.18-0.27-0.34-0.26c-0.16,0.01-0.29,0.12-0.32,0.28
		l-0.68,4.41l-2.1-1.77c-0.13-0.11-0.33-0.1-0.45,0.02L81,29.24l-6.25-0.25l-1.83-1.56c-0.14-0.12-0.35-0.1-0.47,0.03l-1.69,1.92
		l-2.51,0.11l-0.97-5.14c-0.03-0.16-0.17-0.29-0.35-0.27c-0.17,0.01-0.3,0.14-0.31,0.31l-0.46,5.95l-2.33-1.68
		c-0.1-0.07-0.24-0.08-0.36-0.02l-1.33,0.73h-5.13l-1.69-1.91c-0.06-0.07-0.14-0.11-0.23-0.11c-0.09-0.01-0.18,0.03-0.24,0.09
		l-1.95,1.81h-2.54l-0.57-0.58v-4.25c0-0.15-0.1-0.28-0.24-0.32c-0.14-0.04-0.3,0.02-0.37,0.15l-0.64,1.03
		c-0.03,0.05-0.05,0.11-0.05,0.18v4.15l-2.12-1.94c-0.13-0.12-0.34-0.12-0.47,0.02l-0.92,0.97h-3.82c-0.11,0-0.21,0.05-0.27,0.14
		l-0.41,0.59h-6.04l-1.94-2.59c-0.1-0.13-0.28-0.17-0.43-0.09l-1.15,0.65c-0.1,0.06-0.17,0.17-0.17,0.29v1.59l-1.91-1.22
		c-0.12-0.08-0.27-0.07-0.38,0.01l-1.75,1.33c-0.59-0.57-2.06-0.69-2.78-0.71c-1.37,0.04-5.16,1.22-5.66,1.38h-2.46l-1.41-1.9
		c-0.31-0.69-0.69-1.05-1.14-1.05c-0.76,0.01-1.27,1-1.37,1.21c-0.02,0.04-0.03,0.09-0.03,0.14v1.41l-1.15-0.54
		c-1.16-0.93-1.9-0.77-2.17-0.65H1.21c-0.18,0-0.33,0.15-0.33,0.33s0.15,0.33,0.33,0.33h7.4c0.06,0,0.12-0.02,0.17-0.05
		c0,0,0.5-0.25,1.53,0.58c0.02,0.02,0.04,0.03,0.07,0.04l1.66,0.77c0.1,0.05,0.22,0.04,0.32-0.02c0.1-0.06,0.15-0.17,0.15-0.28
		v-1.86c0.17-0.34,0.51-0.75,0.72-0.76c0.16,0,0.37,0.26,0.55,0.68c0.01,0.02,0.02,0.05,0.04,0.07l1.53,2.07
		c0.06,0.08,0.16,0.13,0.27,0.13h2.68c0.03,0,0.07-0.01,0.1-0.02c0.04-0.01,4.18-1.33,5.5-1.36c1.26,0.04,2.33,0.36,2.36,0.59
		c0.02,0.12,0.1,0.21,0.21,0.26c0.11,0.04,0.23,0.03,0.32-0.04l1.86-1.41l2.23,1.42c0.1,0.07,0.23,0.07,0.34,0.01
		c0.11-0.06,0.17-0.17,0.17-0.29v-2l0.73-0.41l1.87,2.48c0.06,0.08,0.16,0.13,0.27,0.13h6.38c0.11,0,0.21-0.05,0.27-0.14l0.41-0.59
		h3.78c0.09,0,0.18-0.04,0.24-0.1l0.8-0.84l2.44,2.23c0.1,0.09,0.24,0.11,0.36,0.06c0.12-0.05,0.2-0.17,0.2-0.31v-1.42
		c0.02,0.04,0.04,0.07,0.07,0.1L50,29.82c0.06,0.06,0.15,0.1,0.24,0.1h2.81c0.08,0,0.17-0.03,0.23-0.09l1.79-1.66l1.56,1.77
		c0.06,0.07,0.15,0.11,0.25,0.11h5.36c0.06,0,0.11-0.01,0.16-0.04l1.22-0.67l2.64,1.9c0.1,0.07,0.23,0.08,0.33,0.03
		c0.11-0.05,0.18-0.16,0.19-0.28l0.32-4.04l0.56,2.96c0.03,0.16,0.16,0.3,0.34,0.27l2.94-0.13c0.09,0,0.18-0.04,0.24-0.11l1.57-1.78
		l1.67,1.42c0.06,0.05,0.13,0.08,0.2,0.08l6.51,0.26c0.08,0,0.18-0.03,0.25-0.1l0.55-0.56l2.32,1.95c0.06,0.05,0.14,0.08,0.21,0.08
		c0.04,0,0.08-0.01,0.12-0.02c0.11-0.04,0.19-0.14,0.21-0.26l0.5-3.28l0.5,2.18c0.03,0.14,0.15,0.25,0.3,0.26l3.19,0.26
		c0.1,0.01,0.19-0.03,0.26-0.1l1.38-1.4l2.22,0.83c0.08,0.03,0.16,0.03,0.24,0l0.6-0.24l1.75-0.21v0.4c0,0.18,0.15,0.33,0.33,0.33
		h2.43c0.09,0,0.17-0.04,0.24-0.1l0.85-0.86l2.46,1.3c0.1,0.05,0.21,0.05,0.3,0c0.1-0.05,0.16-0.14,0.18-0.24l0.47-2.83l0.41,2.07
		c0.03,0.16,0.17,0.27,0.33,0.27h3.07c0.18,0,0.33-0.15,0.33-0.33v-0.31H108c0.63,1.22,2.46,2.36,2.71,2.51l0.17,0.1l0.17-0.1
		c0.31-0.18,3.08-1.82,3.08-3.29C114.12,27.41,113.52,26.67,112.71,26.49z"/>
</g>
</svg>
