<?xml version="1.0" encoding="utf-8"?>
<!-- Generator: Adobe Illustrator 25.2.1, SVG Export Plug-In . SVG Version: 6.00 Build 0)  -->
<svg version="1.1" id="圖層_1" xmlns="http://www.w3.org/2000/svg" xmlns:xlink="http://www.w3.org/1999/xlink" x="0px" y="0px"
	 viewBox="0 0 170 60" style="enable-background:new 0 0 170 60;" xml:space="preserve">
<style type="text/css">
	.st0{fill:#DC000C;}
</style>
<g>
	<path class="st0" d="M23.39,53.29c-0.36-0.54-0.97-0.86-1.61-0.85c-0.66-0.02-1.3,0.25-1.73,0.76c-0.47,0.64-0.71,1.42-0.68,2.21
		c-0.06,0.86,0.19,1.71,0.71,2.39c0.42,0.49,1.05,0.77,1.7,0.74c0.41,0.01,0.82-0.11,1.15-0.35c0.42-0.36,0.77-0.8,1.01-1.3
		l-0.48-0.28c-0.18,0.41-0.46,0.78-0.8,1.07c-0.26,0.19-0.56,0.3-0.88,0.31c-0.39-0.01-0.74-0.23-0.92-0.58
		c-0.29-0.62-0.42-1.31-0.39-1.99h3.48C23.99,54.67,23.79,53.93,23.39,53.29z M20.48,54.87c0.01-0.43,0.12-0.86,0.32-1.25
		c0.19-0.37,0.56-0.61,0.98-0.62c0.37,0.01,0.7,0.25,0.81,0.6h0c0.17,0.4,0.27,0.84,0.27,1.28H20.48z"/>
	<path class="st0" d="M29.7,57.38v-2.88c0.02-0.49-0.14-0.96-0.46-1.33c-0.28-0.31-0.67-0.48-1.08-0.47c-0.26,0-0.52,0.08-0.73,0.24
		c-0.21,0.14-0.38,0.33-0.52,0.54v-0.9h-0.55c-0.21,0.25-0.5,0.43-0.81,0.5v0.55c0.08-0.01,0.16,0.03,0.21,0.09
		c0.04,0.11,0.06,0.23,0.06,0.36v3.23c0.02,0.15,0,0.31-0.06,0.45c-0.03,0.05-0.1,0.08-0.21,0.08v0.55h1.63v-0.55
		c-0.1,0-0.17-0.02-0.2-0.07c-0.05-0.15-0.07-0.3-0.06-0.46v-3.23c0.14-0.21,0.31-0.4,0.51-0.57c0.17-0.16,0.39-0.25,0.62-0.26
		c0.17,0,0.32,0.09,0.4,0.25c0.13,0.32,0.18,0.66,0.16,1v2.88c0.01,0.13-0.01,0.26-0.07,0.38c-0.03,0.05-0.11,0.08-0.22,0.08v0.55
		h1.65v-0.55c-0.08,0.01-0.16-0.03-0.21-0.1C29.7,57.63,29.68,57.51,29.7,57.38z"/>
	<path class="st0" d="M35.47,53.29c-0.36-0.54-0.97-0.86-1.62-0.85c-0.66-0.02-1.3,0.25-1.73,0.76c-0.47,0.64-0.71,1.42-0.68,2.21
		c-0.06,0.86,0.19,1.71,0.71,2.39c0.42,0.49,1.05,0.77,1.7,0.74c0.41,0.01,0.82-0.11,1.16-0.35c0.42-0.36,0.77-0.8,1.01-1.3
		l-0.48-0.28c-0.18,0.41-0.46,0.78-0.8,1.07c-0.26,0.19-0.57,0.3-0.89,0.31c-0.39-0.01-0.74-0.23-0.92-0.58
		c-0.29-0.62-0.43-1.31-0.39-1.99h3.48C36.06,54.67,35.87,53.93,35.47,53.29z M32.55,54.87c0.01-0.43,0.12-0.86,0.32-1.25
		c0.19-0.37,0.56-0.61,0.98-0.62c0.37,0.01,0.7,0.25,0.81,0.6c0.17,0.4,0.27,0.84,0.27,1.28H32.55z"/>
	<path class="st0" d="M41.24,52.44c-0.33,0.01-0.65,0.12-0.92,0.31c-0.32,0.21-0.6,0.47-0.84,0.78v-0.94h-0.55
		c-0.36,0.24-0.76,0.41-1.18,0.51v0.55h0.31c0.09-0.01,0.18,0.01,0.26,0.05c0.04,0.03,0.07,0.1,0.08,0.21v3.59
		c0.01,0.11-0.01,0.21-0.06,0.31c-0.09,0.04-0.2,0.06-0.3,0.05v0.55h2.06v-0.55h-0.25c-0.1,0.01-0.2-0.01-0.29-0.06
		c-0.05-0.03-0.07-0.13-0.07-0.29v-3.34c0.08-0.16,0.18-0.31,0.32-0.43c0.1-0.11,0.23-0.17,0.38-0.19c0.27,0,0.52,0.15,0.66,0.39
		c0.11,0.22,0.32,0.37,0.57,0.4c0.23,0.01,0.45-0.09,0.59-0.27c0.12-0.16,0.19-0.36,0.19-0.57c0.02-0.26-0.06-0.53-0.21-0.74
		C41.79,52.55,41.52,52.44,41.24,52.44z"/>
	<path class="st0" d="M46.67,53.16c-0.37-0.28-0.82-0.44-1.28-0.46c-0.61,0.01-1.18,0.28-1.56,0.75c-0.43,0.48-0.66,1.11-0.65,1.76
		c-0.03,0.6,0.18,1.19,0.59,1.64c0.43,0.47,1.03,0.73,1.66,0.73c0.31-0.01,0.62-0.1,0.88-0.26v0.32c0.02,0.49-0.07,0.98-0.27,1.43
		c-0.11,0.27-0.37,0.46-0.66,0.47c-0.25,0.01-0.49-0.07-0.68-0.22c-0.09-0.06-0.15-0.15-0.16-0.26v-0.33
		c0.01-0.17-0.05-0.33-0.17-0.45c-0.12-0.13-0.29-0.2-0.47-0.2c-0.16,0-0.3,0.07-0.41,0.18c-0.11,0.13-0.17,0.3-0.16,0.47
		c-0.01,0.33,0.15,0.63,0.42,0.81c0.48,0.32,1.06,0.49,1.64,0.46c0.58,0.02,1.14-0.19,1.56-0.6c0.42-0.49,0.63-1.12,0.59-1.76v-4.83
		h-0.4L46.67,53.16z M46.32,56.76c-0.26,0.17-0.57,0.27-0.88,0.28c-0.35-0.04-0.65-0.25-0.8-0.57c-0.23-0.38-0.35-0.82-0.34-1.26
		c-0.02-0.5,0.09-0.99,0.33-1.43c0.14-0.31,0.43-0.51,0.77-0.54c0.34,0.01,0.66,0.13,0.93,0.33V56.76z"/>
	<path class="st0" d="M53.15,53.29c-0.36-0.54-0.97-0.86-1.61-0.85c-0.66-0.02-1.3,0.25-1.73,0.76c-0.47,0.64-0.71,1.42-0.67,2.21
		c-0.06,0.86,0.19,1.71,0.71,2.39c0.42,0.49,1.05,0.77,1.7,0.74c0.41,0.01,0.82-0.11,1.16-0.35c0.42-0.36,0.77-0.8,1.01-1.3
		l-0.48-0.28c-0.19,0.41-0.46,0.78-0.8,1.07c-0.26,0.19-0.57,0.3-0.88,0.31c-0.39-0.01-0.74-0.23-0.92-0.58
		c-0.29-0.62-0.42-1.31-0.39-1.99h3.48C53.75,54.67,53.56,53.93,53.15,53.29z M50.24,54.87c0.01-0.43,0.12-0.86,0.32-1.25
		c0.19-0.37,0.56-0.61,0.98-0.62c0.37,0.01,0.7,0.25,0.81,0.6c0.17,0.4,0.27,0.84,0.27,1.28H50.24z"/>
	<path class="st0" d="M58.39,57.77c-0.12,0.03-0.23,0.04-0.35,0.05c-0.13,0.01-0.26-0.05-0.34-0.15c-0.07-0.15-0.1-0.31-0.09-0.47
		v-3.89h1.38v-0.55H57.6V50.7h-0.55c0,0.51-0.15,1.02-0.42,1.45c-0.15,0.33-0.46,0.56-0.83,0.6v0.55h0.71v3.89
		c-0.03,0.36,0.08,0.71,0.32,0.98c0.27,0.25,0.63,0.38,0.99,0.36c0.29,0.01,0.59-0.05,0.85-0.19c0.28-0.23,0.51-0.51,0.67-0.83
		h-0.55C58.68,57.64,58.54,57.72,58.39,57.77z"/>
	<path class="st0" d="M63.89,57.42v-4.86h-0.55c-0.37,0.24-0.78,0.42-1.2,0.54v0.55h0.29c0.09,0,0.17,0.02,0.25,0.06
		c0.08,0.05,0.13,0.14,0.12,0.24v3.47c0,0.11-0.04,0.23-0.12,0.31c-0.16,0.1-0.35,0.14-0.54,0.12v0.55h2.36v-0.55
		c-0.18,0.02-0.36-0.02-0.51-0.12C63.92,57.64,63.89,57.53,63.89,57.42z"/>
	<path class="st0" d="M63.72,50.92c0.13-0.14,0.2-0.33,0.2-0.53c0-0.18-0.08-0.34-0.21-0.46c-0.12-0.12-0.29-0.19-0.46-0.19
		c-0.19,0-0.37,0.07-0.51,0.19c-0.12,0.12-0.19,0.29-0.19,0.46c-0.01,0.2,0.06,0.39,0.2,0.53c0.14,0.12,0.31,0.19,0.49,0.2
		C63.43,51.12,63.6,51.05,63.72,50.92z"/>
	<path class="st0" d="M70.31,57.81c-0.24,0.12-0.5,0.18-0.77,0.18c-0.45-0.05-0.85-0.33-1.02-0.75c-0.27-0.51-0.41-1.08-0.39-1.65
		c-0.02-0.63,0.08-1.26,0.32-1.85c0.24-0.48,0.55-0.72,0.92-0.73c0.2-0.02,0.39,0.04,0.55,0.15c0.13,0.12,0.21,0.28,0.2,0.46
		c0,0.18,0.06,0.36,0.19,0.49c0.13,0.13,0.3,0.2,0.48,0.2c0.15,0.01,0.3-0.05,0.41-0.15c0.13-0.15,0.2-0.34,0.19-0.54
		c-0.02-0.3-0.17-0.57-0.42-0.73c-1.04-0.72-2.46-0.53-3.27,0.45c-0.46,0.66-0.7,1.45-0.68,2.25c-0.01,0.73,0.22,1.44,0.66,2.02
		c0.44,0.59,1.13,0.94,1.86,0.94c0.36,0,0.7-0.1,1.01-0.27c0.45-0.3,0.81-0.71,1.06-1.19h-0.55C70.86,57.37,70.6,57.61,70.31,57.81z
		"/>
	<path class="st0" d="M83.42,57.74c-0.06-0.07-0.1-0.17-0.09-0.27v-6.8c-0.01-0.1,0.02-0.21,0.07-0.29
		c0.05-0.08,0.13-0.12,0.22-0.12h0.21V49.7h-2.13v0.55h0.19c0.1-0.01,0.2,0.04,0.26,0.12c0.06,0.09,0.09,0.19,0.08,0.29v2.89H80.2
		v-2.88c0-0.1,0.02-0.2,0.06-0.3c0.05-0.08,0.14-0.13,0.24-0.12h0.22v-0.55h-2.15v0.55h0.2c0.1-0.01,0.2,0.03,0.26,0.12
		c0.05,0.09,0.07,0.19,0.07,0.3v6.8c0.01,0.1-0.02,0.19-0.08,0.27c-0.07,0.07-0.17,0.1-0.27,0.09h-0.18v0.55h2.15v-0.55h-0.2
		c-0.1,0.01-0.19-0.02-0.26-0.09c-0.04-0.09-0.06-0.18-0.06-0.27v-3.37h2.04v3.37c0,0.1-0.03,0.19-0.09,0.27
		c-0.07,0.06-0.16,0.09-0.25,0.09h-0.19v0.55h2.13v-0.55h-0.18C83.58,57.85,83.49,57.81,83.42,57.74z"/>
	<path class="st0" d="M88.87,53.29c-0.36-0.54-0.97-0.86-1.61-0.85c-0.66-0.02-1.3,0.25-1.73,0.76c-0.47,0.64-0.71,1.42-0.67,2.21
		c-0.06,0.86,0.19,1.71,0.71,2.39c0.42,0.49,1.05,0.77,1.7,0.74c0.41,0.01,0.82-0.11,1.16-0.35c0.42-0.36,0.77-0.8,1.01-1.3
		l-0.48-0.28c-0.18,0.41-0.46,0.78-0.8,1.07c-0.26,0.19-0.56,0.3-0.88,0.31c-0.39-0.01-0.74-0.23-0.92-0.58
		c-0.29-0.62-0.42-1.31-0.39-1.99h3.48C89.47,54.67,89.27,53.93,88.87,53.29z M85.96,54.87c0.01-0.43,0.12-0.86,0.32-1.25
		c0.19-0.37,0.56-0.61,0.98-0.62c0.37,0.01,0.7,0.25,0.81,0.6c0.17,0.4,0.27,0.84,0.27,1.28H85.96z"/>
	<path class="st0" d="M94.87,57.99c-0.05,0-0.08-0.03-0.11-0.1c-0.01-0.05-0.02-0.17-0.02-0.34v-3.36c0.01-0.46-0.18-0.9-0.51-1.23
		c-0.34-0.34-0.8-0.53-1.27-0.52c-0.52,0-1.02,0.2-1.39,0.57c-0.29,0.22-0.49,0.55-0.53,0.92c-0.01,0.16,0.05,0.31,0.16,0.41
		c0.13,0.1,0.28,0.16,0.45,0.16c0.19,0,0.38-0.06,0.53-0.18c0.13-0.09,0.22-0.24,0.24-0.4c-0.03-0.25,0.02-0.51,0.14-0.73
		c0.09-0.13,0.24-0.21,0.4-0.2c0.22,0.01,0.41,0.14,0.51,0.33c0.13,0.27,0.19,0.56,0.18,0.86v0.76c-0.7-0.02-1.39,0.16-1.98,0.53
		c-0.53,0.35-0.84,0.95-0.83,1.58c-0.01,0.4,0.14,0.78,0.41,1.06c0.27,0.29,0.65,0.44,1.05,0.42c0.37,0,0.73-0.13,1.03-0.36
		c0.1-0.09,0.22-0.21,0.34-0.34c0.02,0.17,0.09,0.33,0.21,0.46c0.18,0.17,0.42,0.26,0.66,0.25c0.36,0,0.61-0.26,0.74-0.78
		l-0.24-0.15C94.97,57.85,94.92,57.99,94.87,57.99z M93.64,57.35c-0.09,0.11-0.19,0.22-0.29,0.32c-0.2,0.18-0.45,0.29-0.72,0.32
		c-0.18,0.02-0.36-0.06-0.48-0.2c-0.15-0.21-0.23-0.47-0.21-0.73c-0.01-0.41,0.17-0.81,0.47-1.09v0c0.36-0.27,0.79-0.43,1.24-0.46
		V57.35z"/>
	<path class="st0" d="M99.61,57.36v-7.65h-0.42c-0.41,0.18-0.85,0.32-1.29,0.41v0.55c0.17-0.01,0.34,0.01,0.5,0.07
		c0.08,0.08,0.12,0.19,0.12,0.31v6.31c0.01,0.13-0.04,0.26-0.12,0.35c-0.19,0.1-0.4,0.15-0.61,0.13v0.55h2.55v-0.55
		c-0.21,0.03-0.41-0.02-0.59-0.13C99.65,57.62,99.61,57.49,99.61,57.36z"/>
	<path class="st0" d="M106.02,57.77c-0.12,0.03-0.23,0.04-0.35,0.05c-0.13,0.01-0.26-0.05-0.34-0.15c-0.07-0.15-0.1-0.31-0.09-0.47
		v-3.89h1.38v-0.55h-1.38V50.7h-0.55c0,0.51-0.15,1.02-0.42,1.45c-0.15,0.33-0.46,0.56-0.83,0.6v0.55h0.71v3.89
		c-0.03,0.36,0.08,0.71,0.32,0.98c0.27,0.25,0.62,0.38,0.99,0.36c0.29,0.01,0.59-0.05,0.85-0.19c0.28-0.23,0.51-0.51,0.67-0.83
		h-0.55C106.3,57.64,106.17,57.72,106.02,57.77z"/>
	<path class="st0" d="M113.04,57.46v-3.18c0-0.43-0.16-0.85-0.45-1.17c-0.31-0.32-0.74-0.5-1.18-0.48c-0.4-0.01-0.78,0.15-1.06,0.42
		c-0.09,0.09-0.17,0.18-0.25,0.28v-3.63h-0.42c-0.34,0.18-0.7,0.32-1.07,0.41v0.55c0.11-0.01,0.23,0.02,0.33,0.07
		c0.05,0.09,0.08,0.2,0.07,0.3v6.31c0.01,0.12-0.02,0.24-0.07,0.35c-0.05,0.08-0.16,0.12-0.33,0.13v0.55h1.87v-0.55
		c-0.16,0-0.27-0.04-0.32-0.13c-0.04-0.11-0.06-0.23-0.06-0.35v-3.2c0.12-0.17,0.28-0.32,0.45-0.45c0.2-0.17,0.44-0.28,0.7-0.3
		c0.23,0,0.44,0.12,0.55,0.32c0.1,0.17,0.15,0.36,0.14,0.55v3.17c0,0.09-0.02,0.17-0.06,0.25c-0.03,0.1-0.14,0.14-0.32,0.14v0.55
		h1.84v-0.54c-0.12,0.01-0.24-0.04-0.31-0.13C113.07,57.64,113.05,57.55,113.04,57.46z"/>
	<path class="st0" d="M122.9,52.44c-0.6,0.02-1.16,0.33-1.48,0.84l0,0c-0.89,1.4-0.86,3.2,0.06,4.58c0.34,0.44,0.87,0.7,1.42,0.68
		c0.54-0.01,1.05-0.27,1.38-0.71c0.52-0.67,0.78-1.5,0.74-2.35c0.02-0.77-0.19-1.52-0.6-2.17C124.1,52.78,123.52,52.45,122.9,52.44z
		 M123.51,57.44c-0.17,0.31-0.38,0.47-0.61,0.47c-0.29-0.03-0.53-0.21-0.65-0.47h0c-0.3-0.61-0.43-1.28-0.39-1.96
		c-0.02-0.62,0.1-1.24,0.34-1.82c0.22-0.4,0.46-0.6,0.7-0.6c0.24,0,0.47,0.2,0.67,0.6c0.25,0.57,0.38,1.19,0.35,1.82
		C123.96,56.16,123.82,56.84,123.51,57.44z"/>
	<path class="st0" d="M130.28,52.44c-0.33,0.01-0.65,0.12-0.92,0.31c-0.32,0.21-0.6,0.47-0.84,0.78v-0.94h-0.55
		c-0.36,0.24-0.76,0.41-1.18,0.51v0.55h0.31c0.09-0.01,0.18,0.01,0.26,0.05c0.05,0.03,0.07,0.1,0.07,0.21v3.59
		c0.01,0.11-0.01,0.21-0.06,0.31c-0.09,0.04-0.19,0.06-0.29,0.05v0.55h2.06v-0.55h-0.25c-0.1,0.01-0.21-0.01-0.29-0.06
		c-0.05-0.03-0.07-0.13-0.07-0.29v-3.34c0.08-0.16,0.18-0.31,0.32-0.43c0.1-0.11,0.23-0.17,0.38-0.19c0.27,0,0.52,0.15,0.66,0.39
		c0.11,0.22,0.32,0.37,0.57,0.4c0.23,0.01,0.45-0.09,0.59-0.27c0.12-0.16,0.19-0.36,0.19-0.57c0.02-0.26-0.06-0.53-0.21-0.74
		C130.82,52.55,130.55,52.44,130.28,52.44z"/>
	<path class="st0" d="M134.43,49.74c-0.19,0-0.37,0.07-0.51,0.19c-0.12,0.12-0.19,0.29-0.19,0.46c-0.01,0.2,0.06,0.39,0.2,0.53
		c0.14,0.12,0.31,0.19,0.49,0.2c0.18,0,0.35-0.07,0.47-0.2c0.13-0.14,0.2-0.33,0.2-0.53c0-0.18-0.08-0.34-0.21-0.46h0
		C134.77,49.81,134.61,49.74,134.43,49.74z"/>
	<path class="st0" d="M135.07,57.42v-4.86h-0.55c-0.37,0.24-0.78,0.42-1.2,0.54v0.55h0.29c0.09,0,0.17,0.02,0.25,0.06
		c0.08,0.05,0.13,0.14,0.12,0.24v3.47c0,0.11-0.04,0.23-0.12,0.31c-0.16,0.1-0.35,0.14-0.54,0.12v0.55h2.36v-0.55
		c-0.18,0.02-0.36-0.02-0.51-0.12C135.1,57.64,135.07,57.53,135.07,57.42z"/>
	<path class="st0" d="M141.74,53.16c-0.37-0.28-0.82-0.44-1.28-0.46c-0.6,0.01-1.18,0.28-1.56,0.75c-0.43,0.48-0.67,1.11-0.65,1.76
		c-0.03,0.6,0.18,1.19,0.59,1.64c0.43,0.47,1.03,0.73,1.66,0.73c0.31-0.01,0.62-0.1,0.88-0.26v0.32c0.02,0.49-0.07,0.98-0.27,1.43
		c-0.11,0.27-0.37,0.46-0.66,0.47c-0.25,0.01-0.49-0.07-0.68-0.22c-0.09-0.06-0.15-0.15-0.16-0.26v-0.33
		c0.01-0.17-0.05-0.33-0.17-0.45c-0.12-0.13-0.29-0.2-0.47-0.2c-0.16,0-0.3,0.07-0.41,0.18c-0.11,0.13-0.17,0.3-0.17,0.47
		c-0.01,0.33,0.15,0.63,0.42,0.81c0.48,0.32,1.06,0.48,1.64,0.46c0.58,0.02,1.14-0.19,1.56-0.6c0.42-0.48,0.63-1.12,0.59-1.76v-4.83
		h-0.4L141.74,53.16z M141.39,56.76c-0.26,0.17-0.57,0.27-0.88,0.28c-0.35-0.04-0.65-0.25-0.8-0.57c-0.23-0.38-0.35-0.82-0.34-1.26
		c-0.02-0.5,0.1-0.99,0.33-1.43c0.14-0.31,0.43-0.51,0.77-0.54c0.34,0.01,0.66,0.13,0.93,0.33V56.76z"/>
	<path class="st0" d="M147.14,57.42v-4.86h-0.55c-0.37,0.24-0.78,0.42-1.2,0.54v0.55h0.3c0.09,0,0.17,0.02,0.25,0.06
		c0.08,0.05,0.13,0.14,0.12,0.24v3.47c0.01,0.11-0.04,0.23-0.12,0.31c-0.16,0.1-0.35,0.14-0.54,0.12v0.55h2.36v-0.55
		c-0.18,0.02-0.36-0.02-0.51-0.12C147.17,57.64,147.14,57.53,147.14,57.42z"/>
	<path class="st0" d="M146.5,49.74c-0.19,0-0.37,0.07-0.51,0.19c-0.12,0.12-0.19,0.29-0.19,0.46c-0.01,0.2,0.06,0.39,0.2,0.53
		c0.14,0.12,0.31,0.2,0.5,0.2c0.18,0,0.35-0.07,0.47-0.2c0.13-0.14,0.2-0.33,0.2-0.53c-0.01-0.18-0.08-0.34-0.21-0.46h0
		C146.84,49.81,146.68,49.74,146.5,49.74z"/>
	<path class="st0" d="M154.62,57.38v-2.88c0.02-0.49-0.14-0.96-0.46-1.33c-0.28-0.31-0.67-0.48-1.08-0.47
		c-0.26,0-0.52,0.08-0.73,0.24c-0.21,0.14-0.38,0.33-0.52,0.54v-0.9h-0.55c-0.21,0.25-0.49,0.43-0.81,0.5v0.55
		c0.08-0.01,0.16,0.03,0.21,0.09c0.04,0.11,0.06,0.23,0.06,0.36v3.23c0.02,0.15,0,0.31-0.06,0.45c-0.03,0.05-0.1,0.08-0.21,0.08
		v0.55h1.63v-0.55c-0.07,0.01-0.15-0.02-0.2-0.07c-0.05-0.15-0.07-0.3-0.06-0.46v-3.23c0.14-0.21,0.31-0.4,0.51-0.57
		c0.17-0.16,0.39-0.25,0.62-0.26c0.17,0,0.33,0.09,0.4,0.25c0.13,0.32,0.18,0.66,0.16,1v2.88c0.01,0.13-0.01,0.26-0.07,0.38
		c-0.03,0.05-0.11,0.08-0.22,0.08v0.55h1.65v-0.55c-0.08,0.01-0.16-0.03-0.21-0.1C154.62,57.63,154.6,57.51,154.62,57.38z"/>
	<path class="st0" d="M54.91,32.81c3.63-0.05,7.07-1.67,9.42-4.44l-0.72-0.72c-2.54,2.33-5.07,3.47-7.55,3.47
		c-2.06,0.04-3.99-0.97-5.12-2.69c-1.24-1.71-1.88-3.79-1.81-5.9v-2.28h14.9c0.04-2.49-0.85-4.9-2.48-6.78
		c-1.65-1.93-4.08-3.03-6.62-3c-2.94-0.03-5.71,1.35-7.45,3.73c-1.86,2.24-2.87,5.06-2.85,7.97c-0.13,2.78,0.86,5.5,2.74,7.55
		C49.3,31.8,52.06,32.94,54.91,32.81z M50.57,14.02c0.86-1.56,2.51-2.52,4.29-2.48c3,0,4.55,2.53,4.55,7.5H49.27
		C49.21,17.28,49.66,15.54,50.57,14.02z"/>
	<path class="st0" d="M81.04,30.89c-2.9,0-4.35-0.93-4.35-2.79V16.2h15.62v11.64c0.11,1.04-0.42,2.04-1.35,2.54
		c-1,0.42-2.08,0.59-3.16,0.52v1.03l12.99,0v-1.03c-1.02,0.06-2.05-0.1-3-0.47c-0.95-0.49-1.49-1.53-1.34-2.59V4.14
		c0-2.07,1.45-3.11,4.35-3.11V0H87.82v1.04c1.09-0.05,2.19,0.13,3.21,0.52c0.89,0.62,1.39,1.66,1.29,2.74V15H76.69V4.14
		c0-2.07,1.45-3.11,4.35-3.11V0H68.21v1.04h0.98c2.17,0,3.31,1.03,3.31,3.11v23.7c0,2.07-1.45,3.05-4.29,3.05v1.03h12.83V30.89z"/>
	<path class="st0" d="M115.76,32.81c2.95,0.06,5.8-1.1,7.86-3.21h0c4.35-4.42,4.35-11.51,0-15.94c-2.08-2.09-4.92-3.25-7.86-3.21
		c-2.99,0.01-5.85,1.21-7.94,3.34c-4.33,4.4-4.27,11.48,0.13,15.8C109.98,31.72,112.82,32.89,115.76,32.81z M110.48,14.85
		c0.58-1.19,1.54-2.15,2.73-2.73c2.91-1.41,6.42-0.19,7.83,2.73h0c0.96,2.09,1.42,4.37,1.35,6.67c0.07,2.34-0.37,4.67-1.29,6.83
		c-0.91,2.12-3.02,3.47-5.33,3.42c-4.4,0-6.57-3.41-6.57-10.24C109.1,19.23,109.54,16.95,110.48,14.85z"/>
	<path class="st0" d="M167.82,39.74c-1.02-0.22-1.97,0.2-2.67,1.15c-0.55-0.89-1.39-1.32-2.37-1.17c-1.3,0.19-2.35,1.38-2.35,2.64
		c0,0.05,0.01,0.11,0.02,0.16h-1.49c-0.28,0-0.5,0.22-0.5,0.5v0.47h-3.69l-1.07-5.41c-0.05-0.24-0.27-0.39-0.5-0.4
		c-0.24,0-0.45,0.18-0.49,0.42l-1.04,6.29l-3.41-1.8c-0.2-0.11-0.43-0.07-0.59,0.09l-1.39,1.4h-2.93V43.4
		c0-0.14-0.06-0.28-0.17-0.37s-0.24-0.14-0.39-0.12l-3.25,0.39c-0.04,0-0.09,0.02-0.13,0.03l-0.78,0.32l-3.46-1.29
		c-0.18-0.07-0.39-0.02-0.53,0.12l-2.14,2.16l-4.19-0.34l-1.26-5.46c-0.05-0.23-0.27-0.4-0.51-0.39c-0.24,0.01-0.44,0.19-0.48,0.42
		l-1.01,6.61l-3.15-2.65c-0.2-0.17-0.5-0.16-0.68,0.03l-0.99,1.01l-9.37-0.37l-2.74-2.34c-0.21-0.18-0.52-0.16-0.7,0.05l-2.54,2.88
		l-3.76,0.17l-1.45-7.71c-0.05-0.25-0.25-0.43-0.52-0.41c-0.25,0.01-0.45,0.21-0.47,0.46L98,45.51L94.51,43
		c-0.16-0.11-0.36-0.13-0.53-0.03l-1.99,1.1h-7.69l-2.53-2.87c-0.09-0.1-0.21-0.16-0.35-0.17c-0.13-0.02-0.27,0.04-0.36,0.13
		l-2.92,2.71h-3.81L73.45,43v-6.38c0-0.22-0.15-0.42-0.36-0.48c-0.22-0.06-0.44,0.03-0.56,0.22l-0.96,1.55
		c-0.05,0.08-0.07,0.17-0.07,0.26v6.23l-3.18-2.91c-0.2-0.18-0.51-0.17-0.7,0.02l-1.38,1.46H60.5c-0.16,0-0.32,0.08-0.41,0.21
		l-0.62,0.89h-9.07l-2.91-3.88c-0.15-0.2-0.43-0.26-0.65-0.13l-1.72,0.98c-0.16,0.09-0.25,0.25-0.25,0.43v2.38L42,42.01
		c-0.18-0.11-0.41-0.1-0.57,0.02l-2.63,1.99c-0.88-0.85-3.1-1.03-4.17-1.07c-2.05,0.06-7.74,1.83-8.49,2.07h-3.69l-2.12-2.85
		c-0.46-1.04-1.03-1.57-1.71-1.58c-1.13,0.02-1.91,1.5-2.05,1.81c-0.03,0.07-0.05,0.14-0.05,0.21v2.12l-1.72-0.8
		c-1.75-1.39-2.85-1.16-3.26-0.98H0.56c-0.28,0-0.5,0.22-0.5,0.5s0.22,0.5,0.5,0.5h11.11c0.08,0,0.19-0.03,0.26-0.07
		c0.01,0,0.75-0.38,2.3,0.87c0.03,0.03,0.07,0.05,0.1,0.06l2.49,1.16c0.16,0.07,0.34,0.06,0.48-0.03s0.23-0.25,0.23-0.42v-2.79
		c0.26-0.51,0.76-1.12,1.09-1.14c0.24,0,0.55,0.39,0.83,1.03c0.02,0.04,0.03,0.07,0.06,0.1l2.3,3.1c0.09,0.13,0.24,0.2,0.4,0.2h4.02
		c0.05,0,0.1-0.01,0.15-0.02c0.06-0.02,6.28-1.99,8.26-2.05c1.9,0.07,3.49,0.54,3.55,0.88c0.03,0.17,0.15,0.32,0.31,0.38
		c0.16,0.06,0.35,0.04,0.49-0.07l2.79-2.12l3.35,2.14c0.15,0.1,0.35,0.11,0.51,0.02c0.16-0.09,0.26-0.26,0.26-0.44v-3l1.09-0.62
		l2.8,3.73c0.09,0.12,0.24,0.2,0.4,0.2h9.58c0.16,0,0.32-0.08,0.41-0.21l0.62-0.89h5.68c0.14,0,0.27-0.06,0.36-0.16L68,42.55
		l3.66,3.35c0.15,0.13,0.36,0.17,0.54,0.09c0.18-0.08,0.3-0.26,0.3-0.46v-2.13c0.02,0.06,0.06,0.11,0.1,0.15l1.15,1.16
		c0.09,0.09,0.22,0.15,0.36,0.15h4.22c0.13,0,0.25-0.05,0.34-0.13l2.69-2.49l2.34,2.65c0.09,0.11,0.23,0.17,0.37,0.17h8.05
		c0.08,0,0.17-0.02,0.24-0.06l1.83-1.01l3.96,2.85c0.15,0.11,0.34,0.12,0.5,0.05c0.16-0.08,0.27-0.23,0.29-0.41l0.47-6.06l0.83,4.44
		c0.05,0.24,0.24,0.45,0.51,0.41l4.41-0.19c0.13-0.01,0.26-0.07,0.35-0.17l2.35-2.67l2.5,2.13c0.08,0.07,0.19,0.12,0.3,0.12
		l9.77,0.39c0.12,0,0.28-0.05,0.38-0.15l0.82-0.83l3.48,2.93c0.09,0.08,0.21,0.12,0.32,0.12c0.06,0,0.12-0.01,0.18-0.03
		c0.17-0.06,0.29-0.21,0.32-0.39l0.75-4.91l0.75,3.27c0.05,0.21,0.23,0.37,0.45,0.39l4.79,0.39c0.15,0.01,0.29-0.04,0.4-0.15
		l2.07-2.1l3.34,1.24c0.12,0.04,0.25,0.04,0.36-0.01l0.9-0.36l2.63-0.31v0.6c0,0.28,0.22,0.5,0.5,0.5h3.64
		c0.13,0,0.26-0.05,0.36-0.15l1.27-1.29l3.69,1.96c0.14,0.08,0.31,0.08,0.46,0.01c0.14-0.07,0.25-0.21,0.27-0.37l0.7-4.25l0.61,3.1
		c0.05,0.23,0.25,0.4,0.49,0.4h4.6c0.28,0,0.5-0.22,0.5-0.5v-0.47h1.29c0.95,1.83,3.69,3.55,4.07,3.77l0.25,0.15l0.26-0.15
		c0.47-0.27,4.62-2.73,4.62-4.94C169.94,41.12,169.03,40,167.82,39.74z"/>
</g>
</svg>
